<mxfile host="app.diagrams.net" agent="Mozilla/5.0 (Windows NT 10.0; Win64; x64) AppleWebKit/537.36 (KHTML, like Gecko) Chrome/135.0.0.0 Safari/537.36 Edg/135.0.0.0" scale="0.45" border="0" version="26.1.1">
  <diagram id="Ht1M8jgEwFfnCIfOTk4-" name="Page-1">
    <mxGraphModel dx="3932" dy="2745" grid="1" gridSize="10" guides="0" tooltips="1" connect="1" arrows="1" fold="1" page="1" pageScale="1" pageWidth="1169" pageHeight="827" background="none" math="0" shadow="1">
      <root>
        <mxCell id="0" />
        <mxCell id="1" parent="0" />
        <mxCell id="ZCVKqeAUbGFtYdAIj5f1-17" value="" style="rounded=0;html=1;hachureGap=4;fontFamily=Architects Daughter;fontSource=https%3A%2F%2Ffonts.googleapis.com%2Fcss%3Ffamily%3DArchitects%2BDaughter;strokeWidth=0.5;fillColor=none;whiteSpace=wrap;backgroundOutline=0;glass=0;" parent="1" vertex="1">
          <mxGeometry x="360" y="-640" width="360" height="290" as="geometry" />
        </mxCell>
        <mxCell id="ZCVKqeAUbGFtYdAIj5f1-14" value="" style="rounded=0;html=1;hachureGap=4;fontFamily=Architects Daughter;fontSource=https%3A%2F%2Ffonts.googleapis.com%2Fcss%3Ffamily%3DArchitects%2BDaughter;strokeWidth=0.5;fillColor=none;whiteSpace=wrap;backgroundOutline=0;glass=0;" parent="1" vertex="1">
          <mxGeometry x="-60" y="-640" width="360" height="290" as="geometry" />
        </mxCell>
        <mxCell id="NrVjd3gvD7i43o5AjEjT-33" value="" style="rounded=0;html=1;fillColor=none;strokeWidth=2;glass=0;shadow=1;movable=1;resizable=1;rotatable=1;deletable=1;editable=1;locked=0;connectable=1;whiteSpace=wrap;" parent="1" vertex="1">
          <mxGeometry x="-720" y="-120" width="1160" height="680" as="geometry" />
        </mxCell>
        <mxCell id="NrVjd3gvD7i43o5AjEjT-141" value="" style="rounded=1;html=1;hachureGap=4;fontFamily=Architects Daughter;fontSource=https%3A%2F%2Ffonts.googleapis.com%2Fcss%3Ffamily%3DArchitects%2BDaughter;fillColor=none;dashed=1;strokeWidth=2;whiteSpace=wrap;" parent="1" vertex="1">
          <mxGeometry x="-510" y="-330" width="200" height="200" as="geometry" />
        </mxCell>
        <mxCell id="NrVjd3gvD7i43o5AjEjT-140" value="" style="rounded=0;html=1;fillColor=none;strokeWidth=2;glass=0;shadow=1;whiteSpace=wrap;" parent="1" vertex="1">
          <mxGeometry x="-730" y="-530" width="600" height="240" as="geometry" />
        </mxCell>
        <mxCell id="NrVjd3gvD7i43o5AjEjT-112" value="" style="rounded=1;html=1;hachureGap=4;fontFamily=Architects Daughter;fontSource=https%3A%2F%2Ffonts.googleapis.com%2Fcss%3Ffamily%3DArchitects%2BDaughter;fillColor=none;dashed=1;strokeWidth=2;whiteSpace=wrap;" parent="1" vertex="1">
          <mxGeometry x="390" y="30" width="240" height="200" as="geometry" />
        </mxCell>
        <mxCell id="NrVjd3gvD7i43o5AjEjT-61" value="" style="rounded=1;html=1;fillColor=none;perimeterSpacing=0;glass=1;shadow=1;strokeColor=#999999;whiteSpace=wrap;" parent="1" vertex="1">
          <mxGeometry x="-690" y="-80" width="240" height="540" as="geometry" />
        </mxCell>
        <mxCell id="NrVjd3gvD7i43o5AjEjT-56" value="" style="rounded=1;html=1;fillColor=none;perimeterSpacing=0;glass=1;shadow=1;strokeColor=#999999;points=[[0,0,0,0,0],[0,0.25,0,0,0],[0,0.5,0,0,0],[0,0.75,0,0,0],[0,1,0,0,0],[0.25,0,0,0,0],[0.25,1,0,0,0],[0.5,0,0,0,0],[0.5,1,0,0,0],[0.7,0,0,0,0],[0.75,1,0,0,0],[0.85,0,0,0,0],[0.99,0,0,0,0],[1,0.25,0,0,0],[1,0.5,0,0,0],[1,0.75,0,0,0],[1,1,0,0,0]];whiteSpace=wrap;" parent="1" vertex="1">
          <mxGeometry x="-292" y="-80" width="520" height="440" as="geometry" />
        </mxCell>
        <mxCell id="NrVjd3gvD7i43o5AjEjT-43" value="" style="rounded=0;html=1;fillColor=none;strokeWidth=2;glass=0;shadow=1;whiteSpace=wrap;" parent="1" vertex="1">
          <mxGeometry x="600" y="-10" width="200" height="280" as="geometry" />
        </mxCell>
        <mxCell id="NrVjd3gvD7i43o5AjEjT-9" value="" style="points=[[0,0,0],[0.25,0,0],[0.5,0,0],[0.75,0,0],[1,0,0],[0,1,0],[0.25,1,0],[0.5,1,0],[0.75,1,0],[1,1,0],[0,0.25,0],[0,0.5,0],[0,0.75,0],[1,0.25,0],[1,0.5,0],[1,0.75,0]];outlineConnect=0;fontColor=#232F3E;fillColor=#ED7100;strokeColor=#ffffff;dashed=0;verticalLabelPosition=bottom;verticalAlign=top;align=center;html=1;fontSize=12;fontStyle=0;aspect=fixed;shape=mxgraph.aws4.resourceIcon;resIcon=mxgraph.aws4.ec2;shadow=1;whiteSpace=wrap;" parent="1" vertex="1">
          <mxGeometry x="-50" y="260" width="80" height="80" as="geometry" />
        </mxCell>
        <mxCell id="NrVjd3gvD7i43o5AjEjT-10" value="" style="points=[[0,0,0],[0.25,0,0],[0.5,0,0],[0.75,0,0],[1,0,0],[0,1,0],[0.25,1,0],[0.5,1,0],[0.75,1,0],[1,1,0],[0,0.25,0],[0,0.5,0],[0,0.75,0],[1,0.25,0],[1,0.5,0],[1,0.75,0]];outlineConnect=0;fontColor=#232F3E;fillColor=#ED7100;strokeColor=#ffffff;dashed=0;verticalLabelPosition=bottom;verticalAlign=top;align=center;html=1;fontSize=12;fontStyle=0;aspect=fixed;shape=mxgraph.aws4.resourceIcon;resIcon=mxgraph.aws4.ec2;shadow=1;whiteSpace=wrap;" parent="1" vertex="1">
          <mxGeometry x="-50" y="130" width="80" height="80" as="geometry" />
        </mxCell>
        <mxCell id="NrVjd3gvD7i43o5AjEjT-16" value="" style="points=[[0,0,0],[0.25,0,0],[0.5,0,0],[0.75,0,0],[1,0,0],[0,1,0],[0.25,1,0],[0.5,1,0],[0.75,1,0],[1,1,0],[0,0.25,0],[0,0.5,0],[0,0.75,0],[1,0.25,0],[1,0.5,0],[1,0.75,0]];outlineConnect=0;fontColor=#232F3E;fillColor=#ED7100;strokeColor=#ffffff;dashed=0;verticalLabelPosition=bottom;verticalAlign=top;align=center;html=1;fontSize=12;fontStyle=0;aspect=fixed;shape=mxgraph.aws4.resourceIcon;resIcon=mxgraph.aws4.ec2;shadow=1;whiteSpace=wrap;" parent="1" vertex="1">
          <mxGeometry x="-50" y="10" width="80" height="80" as="geometry" />
        </mxCell>
        <mxCell id="jcx5q0ECtgWjpwYE92kP-2" style="edgeStyle=orthogonalEdgeStyle;rounded=1;orthogonalLoop=1;jettySize=auto;html=1;exitX=1;exitY=0.75;exitDx=0;exitDy=0;exitPerimeter=0;entryX=0;entryY=0.75;entryDx=0;entryDy=0;flowAnimation=1;shadow=1;strokeColor=#545B64;curved=0;" edge="1" parent="1" source="NrVjd3gvD7i43o5AjEjT-25" target="NrVjd3gvD7i43o5AjEjT-26">
          <mxGeometry relative="1" as="geometry" />
        </mxCell>
        <mxCell id="NrVjd3gvD7i43o5AjEjT-25" value="" style="points=[[0,0,0],[0.25,0,0],[0.5,0,0],[0.75,0,0],[1,0,0],[0,1,0],[0.25,1,0],[0.5,1,0],[0.75,1,0],[1,1,0],[0,0.25,0],[0,0.5,0],[0,0.75,0],[1,0.25,0],[1,0.5,0],[1,0.75,0]];outlineConnect=0;fontColor=#232F3E;fillColor=#8C4FFF;strokeColor=#ffffff;dashed=0;verticalLabelPosition=bottom;verticalAlign=top;align=center;html=1;fontSize=12;fontStyle=0;aspect=fixed;shape=mxgraph.aws4.resourceIcon;resIcon=mxgraph.aws4.vpc_privatelink;shadow=1;whiteSpace=wrap;" parent="1" vertex="1">
          <mxGeometry x="480" y="80" width="78" height="78" as="geometry" />
        </mxCell>
        <mxCell id="NrVjd3gvD7i43o5AjEjT-26" value="" style="shape=image;aspect=fixed;image=data:image/jpeg,/9j/4AAQSkZJRgABAQAAAQABAAD/4gKgSUNDX1BST0ZJTEUAAQEAAAKQbGNtcwQwAABtbnRyUkdCIFhZWiAAAAAAAAAAAAAAAABhY3NwQVBQTAAAAAAAAAAAAAAAAAAAAAAAAAAAAAAAAAAA9tYAAQAAAADTLWxjbXMAAAAAAAAAAAAAAAAAAAAAAAAAAAAAAAAAAAAAAAAAAAAAAAAAAAAAAAAAAAAAAAtkZXNjAAABCAAAADhjcHJ0AAABQAAAAE53dHB0AAABkAAAABRjaGFkAAABpAAAACxyWFlaAAAB0AAAABRiWFlaAAAB5AAAABRnWFlaAAAB+AAAABRyVFJDAAACDAAAACBnVFJDAAACLAAAACBiVFJDAAACTAAAACBjaHJtAAACbAAAACRtbHVjAAAAAAAAAAEAAAAMZW5VUwAAABwAAAAcAHMAUgBHAEIAIABiAHUAaQBsAHQALQBpAG4AAG1sdWMAAAAAAAAAAQAAAAxlblVTAAAAMgAAABwATgBvACAAYwBvAHAAeQByAGkAZwBoAHQALAAgAHUAcwBlACAAZgByAGUAZQBsAHkAAAAAWFlaIAAAAAAAAPbWAAEAAAAA0y1zZjMyAAAAAAABDEoAAAXj///zKgAAB5sAAP2H///7ov///aMAAAPYAADAlFhZWiAAAAAAAABvlAAAOO4AAAOQWFlaIAAAAAAAACSdAAAPgwAAtr5YWVogAAAAAAAAYqUAALeQAAAY3nBhcmEAAAAAAAMAAAACZmYAAPKnAAANWQAAE9AAAApbcGFyYQAAAAAAAwAAAAJmZgAA8qcAAA1ZAAAT0AAACltwYXJhAAAAAAADAAAAAmZmAADypwAADVkAABPQAAAKW2Nocm0AAAAAAAMAAAAAo9cAAFR7AABMzQAAmZoAACZmAAAPXP/bAEMABQMEBAQDBQQEBAUFBQYHDAgHBwcHDwsLCQwRDxISEQ8RERMWHBcTFBoVEREYIRgaHR0fHx8TFyIkIh4kHB4fHv/bAEMBBQUFBwYHDggIDh4UERQeHh4eHh4eHh4eHh4eHh4eHh4eHh4eHh4eHh4eHh4eHh4eHh4eHh4eHh4eHh4eHh4eHv/CABEIAZABkAMBIgACEQEDEQH/xAAbAAEBAQEBAQEBAAAAAAAAAAAABwgGBQMEAv/EABoBAQACAwEAAAAAAAAAAAAAAAADBgECBQT/2gAMAwEAAhADEAAAAZSAAAAAAAAAAAAAAAAAAAAAAAAAAAAAAAAAAAAAAAAAAAAAAAAAAAAAAAAAAAAAAAAAAAAAAAAAAAAAAAAAAAAAAAAAAAAAAAAAAAAAAAAAAAAAAAAAAAAAAAAAAAAAAAAAAB+78Op/BtmZqB4Nsp/z7PjdyN+v8mgvNmFtQOZvlb5UCf8AZ0fo/PXNExagcnfLP57JG+ro+vy7mTHKNQONJlz8mh88dLQPZgAAAAAAAAAAABqfLGp+JJ9xw5M1eN7PjXLztBZ90F4N+sFcliM/oE/tsCuSOuRZqQq001jdkjdohdzw3cz4uoqM/MZ40PniwxB1tAAAAAAAAAAAAGp8san4kn3HDkzV43s+NcvO0Fn3QXg36wVyWIz+gT+2wK5I65FmpCrTTWN2SN2iF3PDdzPi6ioz8xnjQ+eLDEHW0AAAAAAAAAAAAanyxqfiSfccOTNXjez41y87QWfdBeDfrBXJYjP6BP7bArkjrkWakKtNNY3ZI3aIXc8N3M+LqKjPzGeND54sMQdbQAAAAAAAAAAABqfLGp+JJ9xw5M1eN7PjXLztBZ90F4N+sFcliM/oE/tsCuSOuRZqQq001jdkjdohdzw3cz4uoqM/MZ40PniwxB1tAAAAAAAAAAAAGp8san4kn3HDkzV43s+NcvO0Fn3QXg36wVyWIz+gT+2wK5I65FmpCrTTWN2SN2iF3PDdzPi6ioz8xnjQ+eLDEPr1dPk6VFnmnS81vgNwAAAAAAAADU+WNT8ST7jhyZq8b2fGuXnaCz7oLwb9YK5LEZ/QJ/bYFckdcizUhVpprG7JG7RC7nhu5nxdRUZ+YzxofPFhier5Xq9LTTIpnoZR1dlHuRh24wAAAAAAAAGp8san4kn3HDkzV43s+NcvO0Fn3QXg36wVyWIz+gT+2wK5I65FmpCrTTWN2SN2iF3PDdzPi6ioz8xnjQ+eLDE9XyvV6WmmRTPQyjq7KPbjDuRgAAAAAAAANT5Y1PxJPuOHJmrxvZ8a5edoLPugvBv1grksRn9An9tgVyR1yLNSFWmmsbskbtELueG7mfF1FRn5jPGh88WGJ6vler0tNMim+hlHV2Ue3GHbjAAAAAAAAAanyxqfiSfccOTNXjez41y87QWfdBeDfrBXJYjP6BP7bArkjrkWakKtNNY3ZI3aIXc8N3M+LqKjPzGeND54sMQdbQMAAyAAAAAAAAAanyxqfiSfccOTNXjez41y87QWfdBeDfrBXJYjP6BP7bArkjrkWakKtNNY3ZI3aIXc8N3M+LqKjPzGeND54sMQdbQAAAAAAAAAAABqfLGp+JJ9xw5M1eN7PjXLztBZ90F4N+sFcliM/oE/tsCuSOuRZqQq001jdkjdohdzw3cz4uoqM/MZ40PniwxB1tAAAAAAAAAAAAGp8san4kn3HDkzV43s+NcvO0Fn3QXg36wVyWIz+gT+2wK5I65FmpCrTTWN2SN2iF3PDdzPi6ioz8xnjQ+eLDEHW0AAAAAAAAAAAAanyxqfiSfccOTNXjez41y87QWfdBeDfrBXJYjP6BP7bArkjrkWakKtNNY3ZI3aIXc8N3M+LqKjPzGeND54sMQdbQAAAAAAAAAAABpLNryZ0wzO8e3reSdXRcoagzphmd4Nu44c6mioS9pnTDM7nbVeUHR1dlxrfGmGZ3L3u0JPfqHpwAAAAAAAAAAAAAAAAAAAAAAAAAAAAAAAAAAAAAAAAAAAAAAAAAAAAAAAAAAAAAAAAAAAAAAAAAAAAAAAAAAAAAAAAAAAAAAAAAAAAAAAAAAAAAAAAAAAAAAAAAAAAAAAAAAB/8QAJBAAAQMCBwEBAQEAAAAAAAAAEAMGNQUzAAIEBzQ2QBUUAZD/2gAIAQEAAQUC/wAAfyavH49Xj8erxm/n9y5hk02oUy/j1ePx6vCqaiWYJIrK4/Hq8fj1eFUFkv4E086mb8erx+PV4z6bU5MvsQsCtzIaPXg/Jcbf2g/uCGTNh0wHsQsCtzIaPXg/Jcbf2g/uCGTNh0wHsQsCtzIaPXg/Jcbf2g/uCGTNh0wHsQsCtzIaPXg/Jcbf2g/uCGTNh0wHsQsCtzIaPXg/Jcbf2g/uCGTNh0wHsQsCtzIaPXg/Jcbf2g/uCGTNh0wHsQsCtzIaPXg/Jcbf2g/uCGTNh0wHsQsCtzIaPXg/Jcbf2g/uCGTNh0wHsQsCtzIaPXg/Jcbf2g/uCGTNh0wHsQsCtzIaPXg/Jcbf2g/uCGTNh0wHsQsCtzIaPXg/Jcbf2g/uCGTNh0wASyZlVPg1fHwavj4NW86FgVuZDR68H5Ljb+0H9wQyZsOmAFHl/ShYFbmQ0evB+S42/tB/cEMmbDpgBR5f0oWBW5kNHrwfkuNv7Qf3BDJmw6YAUeX9KFgVuZDR68H5Ljb+0H9wQyZsOmAFHl/ShYFbmQ0evB+S42/tB/cEMmbDpgBR5f0oWBW5kNHrwfkuNv7Qf3BDJmw6YAUeX9KFgVuZDR68H5Ljb+0H9wQyZsOmA9iFgVuZDR68H5Ljb+0H9wQyZsOmA9iFgVuZDR68H5Ljb+0H9wQyZsOmA9iFgVuZDR68H5Ljb+0H9wQyZsOmA9iFgVuZDR68H5Ljb+0H9wQyZsOmA9iFgVuZDR68H5Ljb+0H9wQyZsOmA9iFgVuZDR68H5Ljb+0H9wQyZsOmA9iFgVuZDR68H5Ljb+0H9wQyZsOmA9iFgVuZDR68H5Ljb+0H9wQyZsOmA9iFgVuZDR68H5Ljb+0H9wQyZsOmA9iNSp/8R+lTsfSp2Kxmy56qGvrdElQvpU7H0qdh6Lor1QMfU6bTp/Sp2PpU7D21Wl1GjDPWSQq/0qdj6VOw5NdolaJ/hr//xAAcEQACAwEBAQEAAAAAAAAAAAACMQABEDAREnD/2gAIAQMBAT8B/Axr2fGDXs+JcqvZ8S68lT4hV52DLgPCcF4bgvDfYMuA8JwXhuC8N9gy4DwnBeG4Lw32DLgPCcF4bgvDfYMuA8JwXhuC8N55fQMuA8JwXhuC8N6fMMuA8JwXhuC8N6fMMuA8JwXhuC8N6fMMuA8JwXhuC8N9gy4DwnBeG4Lw32DLgPCcF4bgvDfYMuA8JwXhuC8N9gy4DwnBeG4Lw32q/J95V+T7lyr8n3Lv2VPuXfv4L//EACkRAAAEBQIGAwEBAAAAAAAAAAABAgUDBBAzcTI0ERIVMDFRExRSQnD/2gAIAQIBAT8B/wADnZs5fhwLjxHWD/IQfMkjE5M/XRzEQ6wf5ECJ8iCV7EzG+GGax1g/yJWP80PmEaJ8aDV6HWD/ACJOZ+wk1GXeePCaQdBB2slmknZSHHbnRs25CbsKxRotH3njwmkHQQdrJZpJ2Uhx250bNuQm7CsUaLR57zx4TSDoIO1ks0k7KQ47c6Nm3ITdhWKNFo89548JpB0EHayWaSdlIcdudGzbkJuwrFGi0ee88eE0g6CDtZLNJOykOO3OjZtyE3YVijRaPNPsQv0QTESvSfHtvHhNIOgg7WSzSTspDjtzo2bchN2FYo0WjyImk6M/9dt48JpB0EHayWaSdlIcdudGzbkJuwrFGi0eRE0nRn/rtvHhNIOgg7WSzSTspDjtzo2bchN2FYo0WjyImkxwMM/9dt48JpB0EHayWaSdlIcdudGzbkJuwrFGi0eacO48eE0g6CDtZLNJOykOO3OjZtyE3YVijRaPPeePCaQdBB2slmknZSHHbnRs25CbsKxRotHnvPHhNIOgg7WSzSTspDjtzo2bchN2FYo0Wjz3njwmkHQQdrJZpJ2Uhx250bNuQm7CsUaLR96alCmOHE/A6Qj2ElylwEzLlMI5TMdIR7EKH8aCT6EeCUZBoMdIR7EvBKCjlIRYfyJNPsdIR7EtLFLp4Ef+C//EADIQAAAEBAQGAQIGAwEAAAAAAAECBBADcXOxQHKywQARNIKDkxIxQRMhMlGQkRRDYZL/2gAIAQEABj8C/gB6WN/4HjpY/rHjpY/rHgSmAQEPqAv8iQIpij9wIPHSx/WPHSx/WPHxiEMQf2MHJx/ChHPy+vxLz46WP6x46WP6x45xYMQmYvJ/jDIY4/sUOfHSx/WPHSx/WPHyOnilKH3Eg42HlB1lY13Td2oXhUAuZ1ky7unqbP4zOqkFwxsPKDrKxrum7tQvDoBczrJl3dPU2fxmdVILhjYeUHWVjXdN3aheHQC5nWTLu6eps/jM6qQXDGw8oOsrGu6bu1C8OgFzOsmXd09TZ/GZ1UguGNh5QdZWNd03dqF4dALmdZMu7p6mz+MzqpBcMbDyg6ysa7pu7ULw6AXM6yZd3T1Nn8ZnVSC4Y2HlB1lY13Td2oXh0AuZ1ky7unqbP4zOqkFwxsPKDrKxrum7tQvDoBczrJl3dPU2fxmdVILhjYeUHWVjXdN3aheHQC5nWTLu6eps/jM6qQXDGw8oOsrGu6bu1C8OgFzOsmXd09TZ/GZ1UguGNh5QdZWNd03dqF4dALmdZMu7p6mz+MzqpBcHLDIHM5h5AH/eOiP/AGHHRH/sOOiP/YYeHlB1lY13Td2oXh0AuZ1ky7unqbP4zOqkFwdHXJqxUPKDrKxrum7tQvDoBczrJl3dPU2fxmdVILg6OuTVioeUHWVjXdN3aheHQC5nWTLu6eps/jM6qQXB0dcmrFQ8oOsrGu6bu1C8OgFzOsmXd09TZ/GZ1UguDo65NWKh5QdZWNd03dqF4dALmdZMu7p6mz+MzqpBcHR1yasVDyg6ysa7pu7ULw6AXM6yZd3T1Nn8ZnVSC4Ojrk1YqHlB1lY13Td2oXh0AuZ1ky7unqbP4zOqkFwxsPKDrKxrum7tQvDoBczrJl3dPU2fxmdVILhjYeUHWVjXdN3aheHQC5nWTLu6eps/jM6qQXDGw8oOsrGu6bu1C8OgFzOsmXd09TZ/GZ1UguGNh5QdZWNd03dqF4dALmdZMu7p6mz+MzqpBcMbDyg6ysa7pu7ULw6AXM6yZd3T1Nn8ZnVSC4Y2HlB1lY13Td2oXh0AuZ1ky7unqbP4zOqkFwxsPKDrKxrum7tQvDoBczrJl3dPU2fxmdVILhjYeUHWVjXdN3aheHQC5nWTLu6eps/jM6qQXDGw8oOsrGu6bu1C8OgFzOsmXd09TZ/GZ1UguGNIAr0v6Q/2hx16X3F469L7i8KjkMBijGMICH3/ADdPDiq08M4fLmU0QAH9Q8del9xeOvS+4vEM0CNDil/BAOZDc/uLqv8AIUQoXMS8vmcA5/Xjr0vuLx16X3F4gFgKYMUQifn8DgP2f5xopIZfwx/M5uQcdel9xeOvS+4vCmHCWJznEA5FLEAR+ofwbf/EACcQAAEEAAYCAQUBAAAAAAAAAPABEDFRABEwUKHBIEAhQXGBkJFh/9oACAEBAAE/If0AosmaKopRg46wcdYVgtkgyVFdOx0VEX84OOsHHWM0PpnmVZfl0VVuGT+YOOsHHWEIgV+EVTN/X+tmcwrjBx1g46wu52IiJ7pqnJ20T1wOnc26Io2C8apy9tE98Tp3NujKNgvGqcvbRPfE6dzboyjYLxqnL20T3xOnc26Mo2C8apy9tE98Tp3NujKNgvGqcvbRPfE6dzboyjYLxqnL20T3xOnc26Mo2C8apy9tE98Tp3NujKNgvGqcvbRPfE6dzboyjYLxqnL20T3xOnc26Mo2C8apy9tE98Tp3NujKPK8rfS031UuSJgD7wB94Eu/XNU5e2ie+J07m3RlHleL09o1Tl7aJ74nTubdGUeV4vT2jVOXtonvidO5t0ZR5Xi9PaNU5e2ie+J07m3RlHleL09o1Tl7aJ74nTubdGUeV4vT2jVOXtonvidO5t0ZR5Xi9PaNU5e2ie+J07m3RlGwXjVOXtonvidO5t0ZRsF41Tl7aJ74nTubdGUbBeNU5e2ie+J07m3RlGwXjVOXtonvidO5t0ZRsF41Tl7aJ74nTubdGUbBeNU5e2ie+J07m3RlGwXjVOXtonvidO5t0ZRsF41Tl7aJ74nTubdGUbBeNU5e2ie+J07m3RlGwXkrBUzEWv74PO8HneFfXr5ojN8or/GjGc+aFXB53g87wl0CxIlFjzR0bV62UM8HneDzvC4oioVUT7FdC5LuUzvj6rg87wed4z4Cwz/JF/Rt/9oADAMBAAIAAwAAABDzzzzzzzzzzzzzzzzzzzzzzzzzzzzzzzzzzzzzzzzzzzzzzzzzzzzzzzzzzzzzzzzzzzzzzzzzzzzzzzzzzzzzzzzzzzzzzzzzzzzzzzzzzzzzzzzzzzzzzzzzzzzzzzzzzyrPW/HyjHanHfzzzzzzzzzzzzyoBfwD6oJWkBbzzzzzzzzzzzzyoBfwD6oJWkBbzzzzzzzzzzzzyoBfwD6oJWkBbzzzzzzzzzzzzyoBfwD6oJWkBbzzzzzzzzzzzzyoBfwD6oJWkBbrz3zzzzzzzzzyoBfwD6oJWkBb8JTzzzzzzzzzyoBfwD6oJWkBb8BbzzzzzzzzzyoBfwD6oJWkBb8BTzzzzzzzzzyoBfwD6oJWkBbz77zzzzzzzzzyoBfwD6oJWkBbzzzzzzzzzzzzyoBfwD6oJWkBbzzzzzzzzzzzzyoBfwD6oJWkBbzzzzzzzzzzzzyoBfwD6oJWkBbzzzzzzzzzzzzy316//wB+/wDr/wB3zzzzzzzzzzzzzzzzzzzzzzzzzzzzzzzzzzzzzzzzzzzzzzzzzzzzzzzzzzzzzzzzzzzzzzzzzzzzzzzzzzzzzzzzzzzzzzzzzzzzzzzzzzzzzzzzzzzzzzzzzzzzzzzzzzzz/8QAIBEAAgICAwADAQAAAAAAAAAAEDEAEQFBMEBRICFwYf/aAAgBAwEBPxD8EdfZn6zLVSvswrNS5Ur7LlTC81K+y3XNuGMyLIjoW4YzIsiOhbhjMiyI6FuGMyLIjoW4YzIsiPhfwmcZw+PcMZkWRBsMa8e4YzIsiDYY149wxmRZEGwxrx7hjMiyI6FuGMyLIjoW4YzIsiOhbhjMiyI6FuGMyLIjo3v5M/cvXL+TK83LFy/ksXMqzcv5L1/gv//EACgRAAEEAQQBAwUBAQAAAAAAAAEAEaGxEDAxYcHwUZHhIUFwgdFx8f/aAAgBAgEBPxD8BgT3D7+jf1D0Xv8AC5RAKIF45aCelwvf4RD4Zjo4wOzfT/Sy4Xv8IgjDO8Ig0Ox1wvf4RWQYtX91rPSG6hilEUcRlVsYkG1MYl9DWs9IbqGKURRxGVWxiQbUxjxuBrWekN1DFKIo4jKrYxINqYx43A1rPSG6hilEUcRlVsYkG1MY8bga1npDdQxSiKOIyq2MSDamMeNwESAHK/6A/qemGehB07PSG6hilEUcRlVsYkG1MY8bgKEaR3W39e9Oz0huoYpRFHEZVbGJBtTGPG4CjGkd1t/XvTs9IbqGKURRxGVWxiQbUxjxuAoRpFzZAQH8d6dnpDdQxSiKOIyq2MSDamMeNwMM9EABp2ekN1DFKIo4jKrYxINqYx43A1rPSG6hilEUcRlVsYkG1MY8bga1npDdQxSiKOIyq2MSDamMeNwNaz0huoYpRFHEZVbGJBtTGJfQ1hYGH1bcsh6uE2j9gyCGjF4I7XPhCElwDI5DAtBdc+EFGcB5QCpYAy58I8eOXr8C/wD/xAAjEAEAAQQDAAICAwAAAAAAAAABUQARMPAQIVAxQGGQQXGB/9oACAEBAAE/EP0AnzRcRxOSpU6ITALpEex5vX+65mzYFnsT/OVSoIMBQEpewG3T3+OShaBd3+L2Nvh5VKm0PZcoEF+ejzvSg+WwW3KpV2LA7xrdqWO/u7CGe98i27WfheaithDPO+5LdrPwrNRWwhnnfclu1n4VmorYQzzvuS3az8KzUVsIZ533JbtZ+FZqK2EM877kt2s/Cs1FbCGed9yW7WfhWaithDPO+5LdrPwrNRWwhnnfclu1n4VmorYQzzvuS3az8KzUVsIZ533JbtZ4bNT31eBKBfrtQ+yZMuythDPO+5LdrPLZqAv1SthDPO+5LdrPLZqAv1SthDPO+5LdrPLZqAv1SthDPO+5LdrPLZqAv1SthDPO+5LdrPLZqAv1SthDPO+5LdrPwrNQErYQzzvuS3az8KzUVsIZ533JbtZ+FZqK2EM877kt2s/Cs1FbCGed9yW7WfhWaithDPO+5LdrPwrNRWwhnnfclu1n4VmorYQzzvuS3az8KzUVsIZ533JbtZ+FZqK2EM877kt2s/Cs1FbCGed9yW7Wfh2aiA9A0QXE5mTJvRAusA6RP5OflWkhxXAlxH+k5MmQfOzqqlS9kbfk5dJqFQXO0va58TyZM3JGtlC6NYvz8v8AbgdC4F3kyZJjiwojZC9C9R+jb//Z;shadow=1;whiteSpace=wrap;html=1;" parent="1" vertex="1">
          <mxGeometry x="650" y="69" width="80" height="80" as="geometry" />
        </mxCell>
        <mxCell id="NrVjd3gvD7i43o5AjEjT-40" value="" style="edgeStyle=orthogonalEdgeStyle;html=1;endArrow=block;elbow=vertical;startArrow=none;startFill=0;endFill=1;strokeColor=#545B64;rounded=1;entryX=0;entryY=0.25;entryDx=0;entryDy=0;entryPerimeter=0;curved=0;shadow=1;flowAnimation=1;exitX=1;exitY=0.5;exitDx=0;exitDy=0;exitPerimeter=0;" parent="1" target="NrVjd3gvD7i43o5AjEjT-25" edge="1" source="NrVjd3gvD7i43o5AjEjT-16">
          <mxGeometry width="100" relative="1" as="geometry">
            <mxPoint x="30.000000000000227" y="-10" as="sourcePoint" />
            <mxPoint x="270" y="109.5" as="targetPoint" />
            <Array as="points">
              <mxPoint x="250" y="50" />
              <mxPoint x="250" y="100" />
            </Array>
          </mxGeometry>
        </mxCell>
        <mxCell id="NrVjd3gvD7i43o5AjEjT-41" value="" style="edgeStyle=orthogonalEdgeStyle;html=1;endArrow=block;elbow=vertical;startArrow=none;startFill=0;endFill=1;strokeColor=#545B64;rounded=1;exitX=1;exitY=0.5;exitDx=0;exitDy=0;exitPerimeter=0;curved=0;flowAnimation=1;shadow=1;entryX=0;entryY=0.5;entryDx=0;entryDy=0;entryPerimeter=0;" parent="1" source="NrVjd3gvD7i43o5AjEjT-10" target="NrVjd3gvD7i43o5AjEjT-25" edge="1">
          <mxGeometry width="100" relative="1" as="geometry">
            <mxPoint x="70" y="110" as="sourcePoint" />
            <mxPoint x="220" y="110" as="targetPoint" />
            <Array as="points">
              <mxPoint x="250" y="170" />
              <mxPoint x="250" y="120" />
              <mxPoint x="470" y="120" />
            </Array>
          </mxGeometry>
        </mxCell>
        <mxCell id="NrVjd3gvD7i43o5AjEjT-42" value="" style="edgeStyle=orthogonalEdgeStyle;html=1;endArrow=block;elbow=vertical;startArrow=none;startFill=0;endFill=1;strokeColor=#545B64;rounded=1;curved=0;shadow=1;flowAnimation=1;exitX=1;exitY=0.5;exitDx=0;exitDy=0;exitPerimeter=0;entryX=0;entryY=0.75;entryDx=0;entryDy=0;entryPerimeter=0;" parent="1" target="NrVjd3gvD7i43o5AjEjT-25" edge="1" source="NrVjd3gvD7i43o5AjEjT-9">
          <mxGeometry width="100" relative="1" as="geometry">
            <mxPoint x="30" y="241.5" as="sourcePoint" />
            <mxPoint x="490" y="128.5" as="targetPoint" />
            <Array as="points">
              <mxPoint x="250" y="300" />
              <mxPoint x="250" y="140" />
              <mxPoint x="470" y="140" />
              <mxPoint x="470" y="138" />
            </Array>
          </mxGeometry>
        </mxCell>
        <mxCell id="NrVjd3gvD7i43o5AjEjT-45" value="" style="edgeStyle=orthogonalEdgeStyle;html=1;endArrow=block;elbow=vertical;startArrow=none;startFill=0;endFill=1;strokeColor=#545B64;rounded=1;entryX=0;entryY=0.5;entryDx=0;entryDy=0;exitX=1;exitY=0.5;exitDx=0;exitDy=0;exitPerimeter=0;curved=0;flowAnimation=1;shadow=1;" parent="1" source="NrVjd3gvD7i43o5AjEjT-25" target="NrVjd3gvD7i43o5AjEjT-26" edge="1">
          <mxGeometry width="100" relative="1" as="geometry">
            <mxPoint x="468" y="109.5" as="sourcePoint" />
            <mxPoint x="568" y="109.5" as="targetPoint" />
          </mxGeometry>
        </mxCell>
        <mxCell id="NrVjd3gvD7i43o5AjEjT-58" value="" style="points=[[0,0,0],[0.25,0,0],[0.5,0,0],[0.75,0,0],[1,0,0],[0,1,0],[0.25,1,0],[0.5,1,0],[0.75,1,0],[1,1,0],[0,0.25,0],[0,0.5,0],[0,0.75,0],[1,0.25,0],[1,0.5,0],[1,0.75,0]];outlineConnect=0;fontColor=#232F3E;fillColor=#8C4FFF;strokeColor=#ffffff;dashed=0;verticalLabelPosition=bottom;verticalAlign=top;align=center;html=1;fontSize=12;fontStyle=0;aspect=fixed;shape=mxgraph.aws4.resourceIcon;resIcon=mxgraph.aws4.vpc;shadow=1;whiteSpace=wrap;" parent="1" vertex="1">
          <mxGeometry x="360" y="430" width="78" height="78" as="geometry" />
        </mxCell>
        <mxCell id="NrVjd3gvD7i43o5AjEjT-60" value="" style="points=[[0,0,0],[0.25,0,0],[0.5,0,0],[0.75,0,0],[1,0,0],[0,1,0],[0.25,1,0],[0.5,1,0],[0.75,1,0],[1,1,0],[0,0.25,0],[0,0.5,0],[0,0.75,0],[1,0.25,0],[1,0.5,0],[1,0.75,0]];outlineConnect=0;fontColor=#232F3E;fillColor=#ED7100;strokeColor=#ffffff;dashed=0;verticalLabelPosition=bottom;verticalAlign=top;align=center;html=1;fontSize=12;fontStyle=0;aspect=fixed;shape=mxgraph.aws4.resourceIcon;resIcon=mxgraph.aws4.compute;shadow=1;whiteSpace=wrap;" parent="1" vertex="1">
          <mxGeometry x="-570" y="60" width="80" height="80" as="geometry" />
        </mxCell>
        <mxCell id="NrVjd3gvD7i43o5AjEjT-62" value="" style="shape=image;aspect=fixed;image=data:image/png,iVBORw0KGgoAAAANSUhEUgAAAQ0AAAFGCAYAAABwjcqnAAAACXBIWXMAACO/AAAjvwGm+t7LAAAAGXRFWHRTb2Z0d2FyZQB3d3cuaW5rc2NhcGUub3Jnm+48GgAAIABJREFUeJztvXmcHEd5N/59enpmL2ktZFkgXzHEBLwyBCxCwNhgxweXbU4ZYo7wIcE2JCQB2wmQD8jiCL6weSEvBMj7I+EIxCLJCwEDxkayLckmr22OWOKwOXxpZcsW1nq1u7Mz3c/vj5nuqa6uqj6mZ6Znt76fjzTVVdVPfbv2eb5dXdUHMTMshh/nXnPr2GPN2SPJ53XEfBgxr/LhPIHAT2DgCWB+AhirQPQEgF1mngRQAZgAWgUAYL/KoBVtkz7AByC4B4MPAlgEgwl4jIEZgGeYMcPgGQfODBMfIPiP+Uz7CLzXB+8BVu3duumUhX73iUVvQFY0hgNnXH7DIS7T77HjP51ATwH4SPg43AeOIvDhAA4FgFaQcycJANLfmDlSGmZKtcIqrMhrbckVWNFcWGc/gGlmnibCNIAHwHwP+XyPX/V+sXXTxr0JXWBREljRKBlO/+iNh45UcAIYz4Dj/x6DnsY+ng7gSa0aLP1EohhxwYhstTd7JxhR85m4zoLpbpB/Dxj3AHQ3+fRD1FbdtXXTKU1YlAZWNAaIc6+5dWyuMfc8OHQiAycw8wYwfqdV2nUQphMMsCJLsiMJRtiyYkTRA67zIPoRgJsd+N95/OH9O27/zPkNWAwMVjT6iHO3bKnM/Wb1iUx0GnycCsIfAhjJFITtZDwIW4miBENgkF8wesN1BoxvEehLzsih19tRSP9hRaPHOHXzttEVE/4ZTPRKZpwD8JpyBCFSXJbIgtFuJS9XgVsRXJnxkEP0zw3iT+788MYH4ztZ9AJWNHqEs67adjyIzwfjTQBWRQbj8txApiCM55mCsGUrp2AMD9dFML7q+HzZTZe/7qdxAxZFwopGgSCAzrrqprOY8B7AP7FfQRjJ7eVKSfm5NsH4PLN/6fbLX78HFj2BFY2CcNbVW88BnE1gPiF1EEYqyEEoFLK0T5iXEISKvD4srZaB60EAmw//pXP1tddu9GBRKKxodImzr/n+EczOJ8F4VSsnfxACijN36iCMtdhTweg/106dDFx/7Pj01puveN2dsimL/HAGTWCYcfY12/6CfefnHcFAYhAqKnRKehmEUAXhMHE1C4aG6+/7Du886W+/emH8CCzywo40cuDca24dW+D6Z33GGyMF5V+ujLYbibOycIViMrQIrv4X6+OTF96+6ay5WIMWmWBFIyPOumz7E6jmfRfMf2Ae6suO3XbtvEEYFi+/pdXiuNJtzcriWT/4+zc/Gm/YIi3s5UkGvOyTP5ikmvedVIIhId/qg1zdvFyZOwh7zVXVjupc1XOu/LxKs3rLye/54tGK1i1SwopGSpy7ZUul0lz4TzA/1+zYiG0UuVypbCBiK5qZi6uina64Fra0WgjX4zy/svWF7/rSOljkghWNlFh4YO0H4fMfJTs2Z3TsWBF0QdgpVp3D8wShhqvEozuuqt0GzvUpTbdy/Ynv3rJaUdsiAXZOIwXOvmrbKSC6kcGCyOZ3bEBxNmRpnzBPFYQsVUkKwk6d0nFF9gfmCuR68+LMwdPtA3DZYEcaCdi8GQ4c+lhUMJAoGOqxdTur10GoabAQrqpWVMkeCUbBXF9YnVxxWdyShQlWNBJw++RNf8LMJ0Rz484vOzbHqsnD514EoSqrYK6s45pnabXPXGU7rR3f9fyLv/hqRSULDaxoGEAAsY+Lo7kdR2ZpW6iR1bEPAJBeh5dvubIPXOPt9oprvEZGrmoDElcC6NN/+L4vHBonaaGCFQ0DXn71TacAPNXJSePY6uG04Ng+wDeA+M89B7+3UK+Ofec9Z676znvOHGtyZQ2RczITrmTgN53dVZEuN7wEl1YjzefhKo+IFELVwlpn0blSwdRCATsRasDZH9v6BQa9qbUlO3Y0r7UlV5Ad27+B2Pmb695z+g+T2j518za3Wlv4U/JxKSh41V9gSw7MXqw+pA9CYagv0+oTV6GQpX3ScgXYYZy082Nv3AkLI6xoaHDuli2VufsO2wtgTQGO7RHz3133njMuz8rjJZu/u5qr/DUApyqH+qUJwliLPeUaNV8QV8INt131pjNgYYS9PNFg7v5D/xDAGgBdOTaAhu/QK/MIBgB8Z9OL9x/SePwlDHy1iIfQErgqjSybB+YYp//hu790crw1CxFWNHTwnZbzdLkESMBfffeS077ZDZVrN21cdFfyW0D4gdjugJcrhUQKwdBwjViUuEqmw42ecnX4ElgYYUVDB8KGeHRldWz+6nV/e/qni6Bz3TtfWvfYew2A2Y79eLv5uUqFrAvCPCsl+oxQ5lhRIy9XoSArV/L5pc+xt5gbYUVDCz4hemLO7NiLfoXfVySjG//urAeJ+WMDWa5sF+iCUDIWyZPHA8lc1SOkPj3c51Yc/83xQosAVjQUeM5n76iCcQyQ37EZ/r989+Izf100t9Fa82MMPB5pVxWEkbjKE4TyKEMhVOKW8kSf8yG0gXOl1yhqWLRhRUOBJ809dhSAitGxES8UHZsJW3rB7et/c87jAH0nbDdNECJeWOoH5gbNlf0TTnz3/7EPs2lgRUMBalaOTnRsyWmjvkmPHzJ/4Kae8SP+r0xBqAowSHnhT1IQKvZO9cDcUHGteH7lNAUBC1jRUMIHr22lcjv23ddu2rjYK34e+buSglA9BGlnyfwzBSFLVeKjg3gQyuf3IeBK9Nw4GwvAioYSRFjVlWODp3tGDoDfcKRvesS5SjETbvR9aVV1yVEKrqqsyD7HxXawAGBFQwlmHNKVY/s42EN6qE24jwsMNMPwWE4fHkJTZES0tkxc9WLGAAhsRUMDKxpK8HhkK/wvkqN3bMLaHpJDc8F7kjzg7zSvHiH1abkyakgWjF5zVbWj1Jg0XOloIpBi72UPKxoqMNxOMo9j+4f3lB/xERKddjIPV3l8rzgDi1u5glDDVdFOV1wLe2AOALP7zIu/GDl5WLRgRUMBJlSBNI4dK2on6Klnf+T7RyhqFQJifpF86i3NcqUyCDVcJR7dcVXt1h3XkTlvpYLRsocVDRUYlS6XAGmx0nx5z/j5/jlpgjAKLdf0QVjqpVWWqsRFNCtXb8RboSC37GFFQwm/9aPw57RLgA77byMUf038Rx/61gaANkQa65JrcUEon99Z4pWBq6oVVTIt11hWMteqV7FzGgpY0dBB4exZHJtBzznjsu+8tmhaDvgyhGJUzuXKcFvilYkr67j28V2kFkpY0UhEBscWChgAMV116uZvrimKyekf+tYbwTg9wiRvEEpcVQZ1QZjqgTn5SiYzVxUG9S5SCxFWNIzI6NhtbxOqHz1Sdf/z3M1bat0yOeND33g2mD/TMa0e+pdjuVI2k4erPMoY1LtILWRY0dAin2PLNhg4aaa68htnXH7DIXmZnPmhb7yA2fkOgPHQatFcC12uFJPDzNVCBSsaBhS1XMnAi8lv7njxh74lTGAm4zmfvaN62oe+9dc+O98HWjeMDcty5VLhahGHm1zFQva4XMuVPq9nx/l/L/7wt78C9q/+7vtffoeutRdfdf2EP998xSr4HwDjaR07aRw7D1eWqihHTKZmkC8Iy8FVPQSx0MGKhgY9Wq4kJpwHovPO+PB194H4BjDdx8BeB/4o+ziCCccBdBrAY2kdu4zLlWXjGrEocZVMhxt1mbwFACsaSrAfpqL5hTh2mHU0mN4KAAQGs3hXR3rHLu1yZV6usp0MXLVDjA6DWB0jV3uXhhJ2TkOLXjm2PuhyOfagucZrZOSqNqDjqubVypMlPpmreoSknHOxCGFFQwm/k8zt2AqzS+5JULn5PFzlEZFCqKK0cnBVNZ+Bq0UEVjRM6Mqx42fHXI6taGc4lisNZ20N/9gR9PqBuTRcLWKwoqFDasdW7VagY0sNDe9yJUs/Obj2+4E5CyWsaBhglyuTuaqHIO0smX/Pucoy2AVXCy2saGhglyvVdWSukulwo+9cYx3WJVcG7KKrGlY0kiA4VDbHVmUV79hFLa1qhxgdBrE6XXEVCgrhGtHaXnG1AKxopMSQLFcmcFXzauXJ44FkruoR0nAurabpV4sAVjRMkB27k6ndbOXZ5cpScVW0k5qrRQxWNHRIceazy5VDwlXikZqrhRJWNFTwgbhjR6v02rFVrXV+koJQsXe/lyuXBFcLFaxoKNG6IzTqbxH3VJyu7HLlUHJVtWIFwwgrGhpkduxYVryO7NiS6XBj6JcrC+OqyiqYK+u4WuXQwYqGAtGHXJMdWzvECFOyY8dMI5NjCwVZg1DJNXJiLhNXvUAUx1UFu+BqghUNHeLep3Vs+Rwbc+yYafVwekkuV8pcVe0oNaZfXOVRhpWLJNj3aSjgoXoZOQufTqyYcMMgCf9H8zUvaiCFUcM7HRaMBaod078ggtD8pA9+WTS3gCAcphUoe0OoElY0FLjhvac9CuDRQfMYJE5631dnwRQLsGF6YI5VCsPSPim5WnRgL08s9DBGUJ4gZKlKfHSgvrzRC0a8QvFcLaKwomGhhh/PGtQDcybB0MV3UVwt4rCiYZGApHkMdeRlEwxVlmKOIlEwMnCV7Si4WqhhRcPCgDQTn/F9sgrGQB7uYzNXCz2saFgYkXWlJDaJadgMGjBPfMYmNTCwB+YsAFjRsDBg2SytpnlgziJEKZdcz92ypTLzwGFPdhveUT45Rznwj/EJ42AaB/NIq5bhT+vHEu2kL+fGd0s8xfihAVbkqdGq6RtM+xqu0TzZYtKZ3Fen5KYiidDIc2IkUwdhGq5D9HCfDnsvuQTEx6arnBfEIP8xAAfBzl6w9wtU3J/jsCv29rZdPUohGi++6vq1VdTOZPDzwTgBdOgzK+yPMxEI3HnoNPxjyo4gJHTOQozWZ4nE6ixVSXLsWDOtlPCho7yOTZEiBVeKcs2/XEmRPajTXLRm2n5VBmFRXI0V+sTVBD4HwEkZdsgB8W/GADmA7wMPXfwQwDcCuBEV/9tYc810b3l0MDDReMU12471PbyRwS+vonoCg1uXSlQWZxns05WZucayho9rxKLEVTIdbvT6gbkS44kAnQfgPHiVJh66+NsA/xOeeP+3gGu9XjbcV9E4dfO20fEVeCMR3gLGiSCmmCOUxFkG+XRl6bnKdjJw1Q4xOgxidQbGdWjALoCzwTgbe4/8GXDRB/Ckq7/Wq4Pqi2ic+6ltK+bn8acTK3AJgCPCP1rkZFciZ+nL05V95BqvkZGr2oCOq5pXK0+W+GSuccHrC9ehgHjsYfrpgH8t9v7VbeB3vRXrrvlp0a32dPXk3C1bKudcc9M75ufxGwY+DuCIVklZnEVBugyOrWqnG66R5vNwZam6QqiitHJwVTU/IK5DAaVgCPn0PBDfib1/fRFAhX7Kumei8fKP3fzC+QfW3sk+/28GDu2UpHQWxAuLd5b4GSeXYxfNdaktV3azUtJvrkOBoPNYOCbu5AdpxiiYr8L0X27B9AXjRbVe+OXJcz57R3Xd7ON/5xC9Hz47uZ1FcoThfbqy3FyVJMOfHFxzr0CVgGvpIR4jq/Mj/RKKyGuAkaPx8F+fjbUff6hbFoWONM752Lanr3t89r8B2gSWBQMDdBaWqsTPYkuZq6JCp0Tm33Ousgx2wVXVSm6uZYfQL+bRRbuco/sBfwDP+x4e/Ath1J8PhYnGWR/fdjoT3QrCswbnLFIyrWPHsoaPa8SixFUyHW4s3RWopSQYggCoxUAo1+R3BOUZIFyPX11wSDeMChGNs6/ZdiH59G0Aq4BBOssQLFd2wVWhxDKDWJ2uuAoF2bnq+7F0XEsL8XhVYiCkY4IipMNNBoATMFq7Fji3kpdV16Jx9tU3vRtMn0YwPzJMzjKI5coErmperbxobhquccHLxJWHmKuqnWHSC1EMUl2OSPsFaVbt55+J6TWX5mXWlWicdfW2vwbwsTBjmJzFLleWi6uinZ6vQJUSQoBnm+yMp2PHHOmzv8OeC8/IwzC3aJxz9c0XEOiaDokhcha7XFk+rhKPnq9AlRJCX+Sb7BTKFflhOQMMAtPncd87npCVZS7ROOuam05m8Cc6fIbIWexy5TLgylKVsguGIADdT3ZG7cnpaEcdAZevyMo2s2icc9XNTybGfwCotdoeJmexy5VDyVXViio5tIIRJFVi0E5zUG4QA62gtPdVCQrzn+KBtz83C+NMonHu5t01Jv4PAGuCRofHWYZpuVLBNdZhZeGqyiqYK+u4DvtKSRALLHBVCINJDCLlOkFh9X4tEOB/PMut5plEY37lvktb92G0mx0mZzFwDWWOFTXychUKCuEa0doycdX/zYvjqsIwP4QmBHUvJzsjnWcUlOfjgT97VVr2qUXj7I/f9HwAf9Phk8JZ4jUG4yxlWNUZJq6qdpQa0y+uLFVX+F6UVokhdFDvJzsVtoOkLCj0/rSjjVSicermbS58fBZAJWgwlbNE/tYDcha7XJmd6zCvQCn7vgwQgre/k51xG2qxehYe/FPpM5xqpBKNFSudCwAc37JdUmeJM0jJlYefq8RjmFagolxZ+imAaykgHocqkNtpDsoNYqAVlPa+JkGJjS6ktI/3pDmaRNF41ce3rQL40qDRopwligKcJXEJcJi4xprpI1eWqsRFdHi4lgFiwGrEIOyvBEHRiQFk2wobSrGSBAU4Cff+2bOTjihRNDymSwCsyeMsigqdEtmBBuzY5eIq2emGq6oVVTIt11hWWbkOGrGAFPKldOR48gqKwYZWrIKkkHb8C7SHFFQxFb7iih0rmfEOk7Ooybe2Y8caBFW/HTvmsWXhqsoqmCvruA7Bw32ynQxcBwtBDEo12SnzUwkKvQEPvXnCdHRG0WC3cQGAVfG/o/RHizmL4lj75SwqriwWlYmrPuiK46rCkDzcx2aual6DhBC85ZzslPgpbaxAo/pK5eG1oRWNUzdvc5nor0qxBJjWWcrAVdWOUmMGt1zZM66RporhaiJXKr2IcNcGZDtuE8RAKyjtfU2Ckji6EPkpbLTK36A9TBhEY+VKvAQ+H2l2FsUxDcpZlv1y5TBxVe2n5topVkldWVRDDNiEgNSJQaRcJyis3i9MqvIlQYHBRtA++2dg71sPix9nC1rR8JnelOwsUYGwy5Wq3SxXLcnwJwfXUgwz5IAU86V0RDDyCorBRpbJTlXbEUGBi0XvxdBAKRov++S3JwE+W0W6dM5ilytLw1VRoVMi8y+U6wARBly4EU3HAlIhBlrBaItBWK4RA6VvCGJmEhRd24SXKo4WgEY0qDH2agBjsfbFjFI4i12u7DfXiEWJa8z/gr9pT7n2Dn610jTX4KpWDMIfjRiE/acQmiBtEoNAUFT7iYIR20/HL9b2i3WvBFSLBpOgMuV1FrtcaeAq28nAVaHEMoNYnYFx7SFGuT6TUGVl60cKSAaGYLJTypf541DcO6Z8ZD4mGudu2VIB+LSIgdBsiZylL8uVfeQar5GRq9qAjquaVysvmpuGa1zw+sK1x9jv+LPmGjypDEidGETKdYKiCeQwqcqXBEUnBuGPwUaEn6+8RImJxsF71zwHwKHlcRYF6zI4tqqdbrhGms/DlaXqCqGK0srBVdX8gLj2GAws3P2Jd9YTqkVHGpFjUQhDKkEx2Ch0slO2LfMHAFI+wBYTDSKcltpZEC8s3lnkwLTLlfH91Fw7xSqpy8OVy8G1DyDgV8YKuzfXAF6pD0h00rGAVIgBK/JDEypBEdJ5JztFfiqRA5+A6fPWyIcen9NgvCC1s0gHMkxLgMPEVUky/MnBtdQrUAlc+wXCz43lqw88FYCjD8h24JnEINKnGhu9nOyM8FPaICzg+ZAQEQ0CCMBzo7v2y1lYqiLbLZNjF89VUaFTIvPvOVdZBrvgqmolN9f+gRi/MNfg45bAZKeBf7sOxUUj8gHol1yx9ffgYE1vnUVKpnXsWFY/HLtYrhGLEteYfwVB1VOuqqyCuXJxXPsJBt1mruEfJ9aOpE1iEelPg6CkKtfU0bafVK7iRydCQmSkUanQ89Q7t7aLcZYhWK7sgmtcpKR9YlwVf8MsXIWC7Fz1/Vg6rv2FX3MatxhrMJ7RYisGZB7BkGyYBIOhEQyh7cJHP/gDbDs1MriIiAb7eF7pnGUQy5UJXNW8WnnR3DRc44KXiSsPMVdVOwPXCwDAj3/wD3/+qL6YCOBTOtuqgFSIQSwgVQEr5Yd/FIMYhD9JYmUSFJ1Y8TiecvjvC5nSRCjxiaVyFrtcWS6uinZ6vgI1CDB93Vi+553PAnBYGHgmMYj8jVVBLQesIt3byU4FP8mGx5FLlFA0XnHFjpUA1ss27XKlSurycOXh5yrx6PkK1IDAFfqKsYJDndsSTAE5LJOdOsELJ0M5MhkaXqssuovPdXyulMJZ7HLlMuDKUpVyCAaAH/zoH95mXjlh72VgglYsIn1oEJRU5Zo6WrFKKk/DTyrn6ApKONIgz99QDmexy5Vy4XBzlZLlFgwQ4VPGCtN/8TtgelG2gORounSTnUJaPfo5Bve+Zl2w0RENouOVByDBLlcauMY6rEuuXFwQDtUK1IBAwP1OM+HSxKc3A9yOG4UYKAMySCoDspMe2GSnwE/ZNgOohl9W7EyE+u3vmgzSWQyOzZ3G4jXychUKCuEa0doycdULRHFcVSjfQ2gmMOjy2z9zfsNYiYJX4akCVpEflpsCElCPLiCVG2ykEhTE91Pyk9sG0PTDQYUDtJ9sJTw9rDYIZynDEuAwcVW1o9SYfnFlqbpCqKK0Sga6Z9at/5Oxyt53vhTA06LHKgasRgxMgsIwC0qkXGEj3MUgBkp+Mn8dv/Z+TudKxAWAhfsOeyrgjw3dEuAwcVW0s2xXoJR9P1gQ6C8Tn2r1/fd1NhKCDYDx7B0p19SJ9ROnLE/DLwt/AMzRkYbn8/qhXAIcJq4Sj2FagYpyZemnAK6DBuNrd37qbd821tnzjtMBnBTsED9AjqYHNtnZbpsV+4XtJwhGhF+wH08Fb/JqzWmw94zo/gaP7sZZEpcA8zt2/7nGmukjV5aqyHaHieuAwXig4tPbkyvSB8wBGSSTAtIgBuGPSgzaaZMYKMVMwU/Zto5fuOMofo1jgbZoMNHxKh/p/3KlTDXq2IoKA+Qq2emGq6oVVTIt11hWWbkOHL4P/pPbP3P+I8Za0+84D+CTzQHJKQPSYGPQk52Jo5/WZGh7pNGaBBUrD/1yZWFcVVkFc2Ud1yF4uE+2k4Hr4EEX/fjTF37fWGX/X07Cx5WdY9KIgUlQIgGpEYMyTHYq+Yltt+Y1gjtCjxYr2eVKcRd90BXHVYUhebiPzVzVvAYPAq6+81Pnfzyx4lzz70E4XBlsAIxn70i5pk6sv3QBq7FhEoPE8jT8Inkt0XjVx7etArCyb85ilysV5liqvsQf7hswGPTFHz1x+pLEig/++akgXBgL5CBtCsjSi4GCUxI/5mMAwFmsN4/qm7Ms++XKYeKq2k/NtVOskrqSqQbjUz9+4vRbeNMm31jv4bc9EfC/DHAl2LFjI0kwWMiX00D876wSDION1IKhsaGf7FTwE+viKABwGc6RgG+XKy1XNcnwJwfXcg0zmJg23fnp8z+UXHWzg4b7JQDt5y3yBKymTu7LFV37WdrW2U7d9lrc87IRFw4fFf2D98BZ7HJlabgqKnRKZP6Fch0oHoWPN9/5j+dfl6r2gw9dCeD0/AFZsBjkFqsiBEVsnwmee7gL9o9kJoWBXjq2ZKcbx1a1okqm5RrLGj6uEYsS15hvBH/TnnIdKLZVPPqT2z9z/n2pau+58GKA3q0OuCwBK6S1AZlXUCQbuQRFbD8Df3KOdJmd9pxGb5zFLlcauMp2MnBVKLHMIFZnYFwHg/0AvfdHnz7/c6qBrhJ7LvxjMC5PHZClFwMFp674MUB0lAPitb1zbH3Qlc6xh2m5sgwrUGm59h8zYPpIY9F96g8/df5nMwjG68D4Z4T3LiUJBgv5chqK/lEFpMFGasHQ2Mg92ckGfgDAR7rweQLC1Uk+Z5F3QjkcW9VON1wjzefhylJ1hVBFaeXgqmp+QFz7CALuZ6b/45H3iZ98+u2/zbTzngvfAcYnATjZAlZTZ7gnO/W2W79HuiCMR+vncRY5MO1yZXw/NddOsUrq8nDlcnDtBwgPgfk7hMqXfvjEPd9PXEaNGyA8cOEmEDYByBiQBYtBbrEqQlDE9hP5P8kFMJ7eWRBB4Y4tNWSXK01cY82Uh2tvsB+EnxPop8z4H6+CG//nH86/K/XlR8zaX05i/sJ/AvFGAMIxZAlYIa0NuLyCItnIJShi+0UJCo23RANpnYWlKvLfq0yOXTxXRYVOicw/mesjDOwG8FOH8DMfvNfxnVl2eBbsPR5eMgZofzMzRCNSFEu1qshGlDuptxvRgmix2KL5RVd54TH5PvGBMcc/sN/xZ5XvuvhkTuMPnv8sgLYAdGxiQJZeDBScuuKXWD7hgjFhlyvVdWSusf4PBCAd130AthHTDX7Vuf7Wj77+N7DoL+64oIon0rtBzqUARvt3djaVG+oUOvopQlAAwJ9wGTwW32cIliu74BoXKWmfGFdF/6bj+jhAW3wHn//B5X+8I/dQ2qJ77Hn7C/Ak+kcAxxdzhi9CUMT8vGKgsNGVWCWVC5cnYmH2INQLBAv/SzUyBqEKpV2u3E1EV836zWt/fOWbDgIALlMegEWvcf8FvwuHPgDgTQCofMN9KV2OyU4Tvwk3zGkbiwWUYbNtJF0QRuIqcxDG8uJkJBa5uKqaz8R1F4OvOPI31S9fe+1GT8HAol/Y+/Zj4PF74dBbEbwCwk52puCX2Pa4C2Ae3Hk0Xk0w2IzXyRWE8j7x5qT91ILRKVZJXR6unIsrAXsBvnjHlef9q70EGSDuuKCKwysvh4+3AvxShO+LSQjI0ouBglNX/LLwj/GbcMFYAHhlpJocb8pMu1zZaoi/1Kg03/WDv3/zo7hcUcWit5i+YBxN52RU8DI8yXk9fPkO5wGenTMFZFkERbIXLx91AZ6LZEmNKINQcQ7CmV4QAAAgAElEQVROCkJFhU6JTCyTYOThKstgHq7+fQ7RG2657Lzt8VoWPcEdF1RxuHss4EzBb04BdApQeQEcHlGeTbs+wxchKBKn1G3rbPdMDNLy81wQFqJilyIIY1nxOnIQxo4xEADNmbxnS6sxJcjD1b/Rc+kNOz7yxw/J1rPh3Ar2Hflk+DQFwrEA1gK0Ej6tgIOxxN1LB+GGTF+huEF5vIPVNphHQFgJpknAX43D3SPBqII9tO4VKcvZOUvA6vgVIShi+3kFRWxf2XbTZca8iog6CCU7UkZ4/mZFjbSCwZJgCAXZBEPDVez37Fx9Yv/9O64876O55y72/c2z4PlngnA6cPRJQFscRGsU51V+BB1bsMOLD15xlw7fFb+8giLZyCUoYvtd9G8xfdN0QbTQOivI0aMKwhI8hBaP6n5xbQJ8/vYrzvs8rog3Z8RDl6wF8ZvAeCuAqdjdl0ONvAGZV1AMNkwBWXoxUHDqil8W/jp+yvJFl5gPxsJLEYN9WK6MB7NKIHrJVdFO2/4csb9x+xXnpXvzU4A9Fx2FCi4G6HwwRjPtOxQos8OL7WcJWF37eQVFbL8sgiLZy9a/My4zTyNWVQqgHi5XRo2oBaNTHGNRLFeJR0cw8JLtV5x3i4K5Go+9axXqzodQofMB1FLvNzTI6/BieiAOr+BXhKBInFK3rbNd4r5hOuAy6EESwy9xuTJ/EEqGpZ8kwVDs3fulVY99vHHHla9PLxgPXXI2qPIpAEem3meo0A+HB8p3ds7LX2NjWEc/5M+4BP9BgNRBiGW9tMoAvW3nla/7z3ipAo/87Up43ucAvE6pkUsChjNQpFyTH6RLJShiugjByysoYvtd9G+v+wb8W9chetBj2VirUm+WK6M2Svwu0g/uuPx1n481pML0xU+Hg68BWJ+q/tAhr9PlFRSDDVNAll4MFJy64pdXbDU20vBnTLs+/AfBiul8VRCKxxYLQsUxmwSDJcEQCrIKhuk+kXxceesRv3ZTfB8DwN53vwiO8w0Ak6nqDx3K7PBi+1kCVtd+XkER2y+LoEj2CutfnnYri/Rg00UUZVhaVbWj1JjCuT5Ucb03XHvtHyc/cPbQRWeBnGuBYbwRKwl5HV5Ml83hs/LXtb+s+2bancfY3irmPQCVwIg5CBW8YoGZRjBYqi4LBCs243UK58r05ps/8sZpJOGhi84C6D8AVBPrDh364fBA+c7OeflrbCzF0Y9DDzhbN53SBLA3MJIchBxtN1ZBFgwVL7VgKPsgXopecSXGv+644nXXK5hHsffiPwDoq1jSgsGIOkwewTDYSO3QGhsxfjJ/nW028JP5G2xo+cn8dfxM/ZsgGKzjL9g23wpuEDwWyhU2PO+e4MLkZ2A+IhbnOYPQZKS07yIlzABI/pL4Q5c8GYTrAEwk1h0qZHV4U7kmP0jH/gYZAtYoBnnalmwYy5Hx2PvcN1p+efnHbDQx//i9rQ/DEN8VD0IpmKUgVESpgle0sMzvImXgfdsvf/2eeA0Rm12AvwxgjbnesEF1BpLPNCyVC/sF6XAXjQ3tGTJIJgmGgpPMPzEgDTZSB6TGRqbRj6Z/dX2TSvAMfRPhr+OX2L/3YsPtDRcA2OPdIIobURJubcf+Pu2NVCslQp1sgqHKKoKrf9/MWPVzscZk7J39KAjPT6w3NMjiUJr8TAFrsJE6YHX88vLXtW/7Jt4+fgq032zkO7jL4Xglju+kbiOLYAgFWQUj1dJqvEYiV4Lz0bs2bVxUkOzg4YtOBNFFxjpDhWFxeAWnrvhl4a/jV4SgiO3n7V+x/T70L+EnQPu7lY47sitkmBiEsogkCUbMQGBFczDKZpF6aTXSfCqu09XxhX9WtCjg3Ap8+gfEvw4ypBDPQKLD5BEMg41MDq9I28lO9X5heULf5J3sDMulfN//EdAWje/97ekHCPygIu7iQYh44VAurXby/9fWTW9ZkHMj2Ps7bwfh2cY6QwE5IMV8Kd2NwysDUhaUoh1eEiuToKQKSM1xxfhp+qbbuR9d2wE/1XGl+tvJbSts6Pqm4nRGGq12aHfUFEd5xqJUF4TxOjJR5d8jXhoQSyEY6bgqWmsSnC8qCjv4zeZREL/PWGco0EeHVzpdkEwKyLwOL/DTiYFSzBT8lG3r+Mn8od7PGJAyfx0/WVA0/as6ru779zE8bevdgCAaYN5VQBAKP2kEg6Uqst0ePzAHfDdxxWR05k8BrDPWKTXyOjykur10eJGfwUYvRz+DGO7LfaPsX5Gf5riU/HX8NDZi/CQbzDsB9oHwFe8AE+6MGIiRQgyDWlqNWJS4xv4ugVipuDI+DyPOrYCOvthcp8xIIwam8nY6UQxM5UghBgpOXfHLwl/HLy9/Xft5+1dsf4D9S3RrkBOKhud7t1Ucp9sg1AhGKT+duFibcL8bb1jAviPPAHCMsU5pETiEdXh9+0UIXhf9W2jfiOke9A3zzmArvDzZuumcewBE3q6dXTBUKMX7PVVcb926aeOsknIA33mzsbyUYKR3aKEuFOnMTie1PdTDfUj8dfw0NmL8JBtlnewU+Xf2W8BkIxxpdOY0WuX/3UlmDsJYXjy4JSlQqUzelZKsXJlvVLTewSN/uxLgVxjrlA59dHil0wXJXjm8wC+9wxv4GQRFJ1Yxfpr+1fVNIj9ZUNL2r8gvoW9M/av82/q34Mid80GVqGgQ3daqrg727lZKYlIgEUdKwWCpqXxcmfj7ihodeM0XATRurFMa5HV4SHVL7vARfhobMX5S3wz16MfUv2zgL/BTHZfIT7Uf0feEDETepMG+f1t4+5KSvHwQwU+SYCj2lqM6JhixZqAVjOxcmRfwP4rKwm7OqSCVvbIhjRiYytvpRDEwlSOFGCg4dcUvC38dv7z8de3n7V+x/RL2L3t60XAnRn7QnKs3wZBfyxMf6mcSDJaqyMHYq08nark+eNsn3jAT3zNi5VRzeRkQHJh1eH37RQheF/07TJOdan73Yv2OHwmF0cuT71585kEwdss7931pNaYEccGI9VUGrtR+8EaPzS6ozO/7ZKR3aKEuFOlcZyDB9lAP9yHx1/HT2Ijxk2wM12Snmh/h/0KCI2cQcJu4c6qlVaEgm2BIfDvGRQaxOpkEQ8HVZ75bQb6DR2aegtJ+r6SPDq90uiDZK4cX+HXr8Mq2dfwkG6a+0fKT+ev4yYKStn9Ffgl9Y+rfVGIbpr8OCTHRYML25CCUd2r9pxMMyVgkL5qrEIxYUzKB7Fwd4LdxMgI852nG8oEgr8NDqltyh4/w09hI6/C6vin16MfUv2zgL/BTHZfIT9d20H4A4n3YV4198yc2d1FhvtGL7KsKwmhePDQlKVDoRe6lVUU7Wbn6rbd06UF8hEKvBog0YmAqb6cTxcBUjhRioODUFb8s/HX88vLXtZ+3f8X2h6R/GdfilK1NSIiNNK7fdM4egOLX/JrAjIVmr5dWJR55loEBelyxVwc+rTSW9xXBcUtnjFyCYbCRyeEV6aU83E8SjCzDfV3fDGT0I/OX8/1/hQIx0Wjt5t8QOygIgRvmyYIh20E8qvu7tKrkyj7Md4KCV5jL+wE5IMV8KW0nOw38TILCBv46fpKNpTDZGdsPAHAvjr/1ViigEQ18I59gsFRFDu4eL62qWlElWTk+ETDom7pUAdkjh1c6XZDslcML/Ap3eJmfwYapb7T8ZP46frKgpO1fkV9C35j6N/fopw3ClxUBDEAjGsAh2wA80qGSFITRArVgqLLioiILRqxfArFS/cFYx1WepC0rTAGJaFrrMEPg8BF+Ghu5HF7om6U++lEdl8hP13bQvtK2AOKvqAs0orF10ylNEP4rFoRCQ1kFQzXqiPh/TDAUf7dEwVAhYVWnNOjG4UWHgeI4i3R4kV9Oh4/wUzi8SVCGcrgv8zPYMPWNlp9gI5OgaGPhRzhux126Qs1IA4CPf4uZbBPmeKZ2s5XXr6VVlqoncC0NunX4drovDq9x1hi/IhxestfT0Y/MX2Hb1L+lHf3I/GUbSnzBVKgVjRc5P/oeg++L8pMFghWb8TpmwUBsI+tDaDrBMHEtB+SAFPOltJ3sNPAzCQob+Ov4STaW7mSnCnMg/19MFbSisWnTJt8B/qXTvhSackwqM3u1tKquk5ZrOaAKyB45vNLpgmSvHF7gV7jDy/wMNkx9o+Un89fxkwUlbf+K/BL6xtS/3U52KkFfxtTO/aYa+ssTAOzg/wPDUwdhJOzlqIYQ/ohWzC4YJiO5VnWQ/EH43sEUkIimtQ4zBA4f4aexkcvhhb5Z6qMf1XGJ/HRtB+0rbSfAoX9MrGIq3Lrplb9h4N8jzaYVjFiWFMySYCgURd41VljUqk7/0I3Diw6D2LEV6/Aiv5wOH+GncHiToAzlcF/mZ7Bh6hstP8FGJkHJ5O/bcdzNdyZVMooGAJDvXZk1CPu+tCrbycC1f+jW4dvpvji8xllj/IpweMnekpns1PRNeSY7FeD/naZWomhs/fBrbmfgxtRBmGZpNV4jo2CoDegEQ82rX5ADUsyX0nay08DPJChs4K/jJ9kofLJT5q+zLf9tdfw0xxXjx1Kd1JgGHfiPNBUTRQMACPzeWNSpeKVdWo1ogKwCaQSDpeoKoYrSGhBUAdkjh1c6XZDM6vCSDa3DC/wKd3iZn8GGqW+0/GT+BhtLbrJTAeKrMHWX+XvGbaQSjW0ffPX/Q3tuAwg4SgT7sLSqMNDZJ0pOtqgw2EuYAhLRtNZh8jq8ZGOQk52FDvel4woDLqFvTP2be7iv46/jp7GRSawUNvJOdsbxEObriROgAVKJBgAw+H0AFpRBWODSqtxq9CdJMBR7ywrEDF/RUnHoxuFFh0HkGGM2hmGyU9d2wE91XKnESm5bYcPUN8qA1fEz9K9qPyU/Tf/qxCqzoHQlGABwGTbcPpe2cmrRuOlDr7mbGR8pYmlVUaFTIndWJsFgqUoKroWiW4dvp/vi8IagLtzhJXt2slPDjw38ZP6yjdz4FUYmP51lh9SiAQBOdfVlBPy4k9OHTyd29ogVZRMMZVZBkAMywiSatpOdBn4mQWEDfx0/yYad7IzDcS7CsdfVM+2SpfLWTac0faa3Amg1EuMtBW5MMBT9ahIMlgRDKMgqGL1TDFVA9sjhlU4XJLM6vGRD6/ACv8IdXuZnsGHqGy0/mb/BxnKY7Izjehx3c+zFwUnIJBoAcPNHXn0ngd+deqUkUkMWkSTBiBkIrES2o3XUglG8ZJgCEtG01mHyOrxkw052avixgZ/MX8fP1L9s4C/w0/VN7G+nsFHcZKeMg/Dp7Xl2zCwaALDtw6/9FDOE5+1lwUBso1Sfeez6LvJuHF50GCiOK43Diw4t76fjl9PhI/yKcHiJv1as5LYVNhIDUnNcMX6G/lXtp+Sn6V9d20p+pv4tVDAAwkV4xi2/yrNrLtEAgP0j/BYAN6oFIyoQZfzMY3506/Aij147vCGoUzu8xoaRn87hkwRF5NdF/9rJTjMI/4ap7Z/Ju3tu0bhr08bFSs19LTPuAlIIhrETWPpJEgzF3oql1VhLXfW/HJAqo2kcniPHpLQRO9C8Dq+w0TOHF/lpjkvJX8dPYyPGT7Ix1JOdur4pEISfo9Y8vxsTuUUDALZueuVjfsM9zQd+2Mph6ThlwRBKNArQv3eRZoEqIHvk8Eqnix5DNN/k8JINrcML/HI7vMjPICi6tmP8NP2r6xslP5OgpO1fkV9C35j6N7fYFopp+PxyHHtbwidJzehKNABgx5WvenjMx6kAbpEFI9aHgQCoOodVgiElUwmGKkvOSDupYQpIybbWYfI6vGTDTnZq+LGBn8xfx8/Uv2zgL/DT9U3sb6ew0bvJThGPgnAGjt/xy24NdS0aAPC9yzYeWDm74gwAnwjyuhIMoSCrYKhGHZG4Tv1H6cbhRYeJc0/n8KJDy/vp+OV0+Ai/Ihxe4q8VK7lthY3EgNQcV4yfoX9V+yn5afpX17aSn6l/eyUY9ADY+SNMbd9VhLVCRAMArvvES+u3fPTcvwLznzB4NptgSGj/ITieqd0MGojtk0sw/NBePocX2+61wxuCOrXDa2wY+ekcPklQRH5d9K+d7EyLH6LpPQ/H3/yTogwWJhoBbrnsdV+Az09jwhdbOWkEI5oXFwhWbMbrmAUj3rwRdrJTfVwhP81xKfnr+GlsxPhJNuxkZxowwJ+FN3Eyfn/ng0Uajn3LtQhsv/z1ewC8+eS/+bdr2cEHmfHsWCWNiMRkRNYGZWb2B+bSIYtDyW0YAlZnGzA4vKk8K78s/HXtZ+Gv41eW/hXbH0TfFI6fwHf+Es+4+aZeGC98pCHilite980dl79+AwhnAbgp7LXQP9IIBktV5M7O88BcGhR1BlJxyHIGyurwOhsJgmEnO1MIhqF/yyEYPwPRG7B+x7N7JRhAj0YaIlqDgNd/C8C3nv/erx7j+PwGAK9l8DMRiJasHWEihWDEsiThiQlGmj9Y8PB8kljI9nUObyqHwaFU7WcRM137Wfjr+OXlr7DRVf+K7Q9T/xaGR0H8dcD5PKZu2d6LBmT0XDRE3PrR1/8GwEcAfOTEd29ZjWrzhfD9EwH6PYCfyuDfBWgknWBA8TeIi4osGAyAUrHN4jBLyeEle10Lnu2beJ3ceASEu8G4G8CPQLwVUzt/AnBvXxEjoa+iIWLn1Rv3A/i/7X8hTnz3ljEAY000VpktaJ7mlRWB4ptz9fmHU5EsZP5AzC/L2TmNw/vvRKVyHWKoR36SQZq0jIW0BgVzJtv1tGcHjY0ErpnpZibT3s1pgP1Z/GzdDDZeO8hvb4QYmGjosPPqjfMA5gEYP9jSU/gAqOjhaJJgFCEoYvvdnuGdh3H0l3M90GTRAzxj0AQ6KJ1olAPSnIaYLvNwP4lfpuF+KU5qFiWEFQ0t+i0Gkj1jeRp+RYx+LCzisKKhhI/ONWhRw/005Zo6hQuKZE9ZbmGhhhUNLQqYPyj9ZGcCPwsLBaxo6NCT4X4RgiK238PRj4WFBlY0tBjgGb5vk50G25RzidBiycOKhhLSnEbwO0gx6Nlkp6ac+W349WtPgwhfth0paP/o7jPSjWKE+sp7lFLsF2nfsF+MXwLXZvP9eOaOdPf0LCNY0dCi4OF+KSc7jfxOB5PQfoq2iREXW2ToG1LXSewbzX5KfmIdgrFvqu5VAKxoSLCikYiE+YNhn+wcptFP3/vXQgUrGlosAYcv3einCEER2+9x39h5HSWsaChR8jN8oWIgppfS6KcIQbFQwYqGCqZnT+xwPyN/XfvDNPqxEGFFIxFldnjJXi/P8EMnBpK93H1jIcOKhhZlOTv3WAxy8VtKox87usgKKxpKiPcOlNnhxfbLcoYvQlDE9gfRNxYmWNHQYsBneDvZmYJfEYIi17FIghUNHUxOZ4f7KfkN0+jHIi2saGgxTA5f0Bl+6MRAsmdHF32BFQ0lxGcS+nF27rEY5OK3lEY/dnRRJKxoaFEWhxfbL8sZvsDRz8D6xiIvrGgkYWgmO4sQA8leKUY/RQiKXMeiG1jR0MEO91PyK4vgpeFvUQSsaKjAijkNMT0Qhy/oDD90YhCmHwF4AoyxfPwsikJPv+U6/BCdv+3QzNAGRVikOcOzOOTWjB5MQc0sBbWOn8aGsm2Jn67toH3VcUXEKo9gCPxbaQ/gb4NwARzvKeDDRnDc1sNw3LZxLNIT4PMLQLgc4F/q+VvB6BXsSEMJxZu7jA5vKm+nh+4MX+DoJ1vbN8BxLsLTbvgJVHjW1scA7Gz9o/dh90mvAeNKAL8Tt23RC9iRhhG6M2gGwdCOLnSjB7ltIN3oosSjn0TBYADcBPDnOO77Z2gFIwb2MXXLFrj8DBC+ZQWjP7CioYUYkEJerFzMl4KmPMN9DT/NcSn56/gZbJj6JiooC3CcM3Hc9z+FPHja9sfxsPtKAF/Itb9FJljR0CG1wxvO8JF8k6BozvBRMtG0afRjHF3AMLpgqVzXNgz8RbE19I3Ij/nP8LQbtqIbnLK1iYWFPwPxTV3ZsUiEFQ0lfKR2+EgdNgRkkEwKyIQzfCRgNfyMowvDyCVoX3VcPRv94HOY2vplFIENtzeA2usBzBRiz0IJKxpGpBldSGf4yH5Sun/DfbWNnox+TKMLqW/i/A6C+QMoElNb9wK4qlCbFhFY0dBCChpTQC7ryU5T2wI/dd98rh3kxYKq1wB4vHC7FgCsaKjBaASJeECazs6Ip+1kp6ZtAA59Db3A1NZZAN/p2g4tNrons/RgRUONx/UBiU46FpAmQdGc4UV7cnopTXZG6jDA/AietvVW9Az0za5NNNwDBRBZcrA3d6nA3B7a6hxezpPSQ/kgVxb+OtsZ+BN+AfV3GIsBeT8Dd3VOZDzq2kscBaxoqMDY1/mEQd6AzCsoYn5eQTHY6EZQChMrBoDi5zJENP09qHQhGkQzOGVrszhCSwdWNFRg/LR1F3mZxUCyN2yjH8Y8egnXmYtQyArmXxTGZYnBzmmo4B3yc7Rua0b7+hthOkSas7MYkHkEo70fC2nZdipB0eyXSzAUNnKNfviJ6CWIDu/Swq5CeCxBWNFQ4dhP1AHsNjh8J20nOw38dfwAAEegl/C5O/tEdxXEZMnBioYW/F2Dw6cIyIQzfCRgFTYSRxdlHP3I/A02mJ+OH5/YQ+GgU7vb37+xGB5LD1Y0tOBvJwdkqYb7Qnme0Y9pdNGT0Q+hWnk5egbnnC52nsbUzh8XRmWJwYqGDo+s2A7gobjDJ5ydl+ednR1+uraD9sX9fP8CgAhF46cveCHAx+U3QN+UlNVCgBUNHTZ8pgHmfwq37WSnpm0dvxSCQnQC7nrBuSgavvPRrvYn75+SKy1fWNEwwefPgLhpJzsR3y8szzv6aYNwJe56XnErKXeddCHAJ+ben3AHpnb+d2F8liCsaJjwu1+5Hxy82CXrcF8MSGm/IF3YcF/M7/XoR+ZvsKHsmxiOArlbsPv4mq5Cauw++SQQ/ldXNnzqbv9lACsaSajg/QAfbG2UdbifdvRjGl30Y/SjxcnAqm/iR6euSlNZibtOOgPM/wWgG/H5MY7fXsy7PZYwrGgk4aiv7AHTVb0b7iNad6lNdqYF4wxUG7di98l/mH4nAPe8bAS7T3ovCNcByC86LbwLvXweZomA2E4SJ2P3uTWM4TYwnt3JzDrcN5W304nDfVM5cox+0vLXtZ+Gf2YwCNeC+WNYv/N26aA6uOd5k6i7rwLwAQBP6aZBAADxFzG1481d21kGsKKRFve8dj0c53YAo9ozvJwXpFMH+zCJQRp+3YIeAPgGMN0L+A+BaBTAUQCeDuCPAIwU0wx+jVrzWTj2NvuawBSwopEFv37tG8H0BQCUfbhvKjfUKcNj7Fp+hY0uBolFsH8qjt+5c9BEhgV2TiMLnvy1L4HwYf0ZXkrnOsPr5g/SCobQdrkmO8sIBuhtVjCywY40MoMIv3zNZwB+WyeviLNzltFD3tGF2H7Rl1NDCML7MLW9uxvBliGsaOQCEX756k8A+Iv+DPfzXo7kFRSDjeEfXbTBl2P9jvcMmsUwwopGbhDhl6+6HMAl+c/OZReDNPyGDgzgIqzffs2giQwrrGh0i1+9+q3w+dMACzcVFRGQeQVFYaMno5+hxCzAb8H6Hf8+aCLDDCsaReCXr3gBmP4VwNH9OcMXIQai7SU/ugDAd4PoVZjabt/I1SXs6kkR+N2v74BTeyaIv9LKYCzbOzvLCOIvgmonWMEoBnakUTTuPuc8AFcDeGK24X7Z5zeGEvfBwdtx3PbrBk1kKcGKRi9w31lPQN25DOA/g/jxjVKKwZK8HFkA+Cos1D+KDbfPDZrMUoMVjV7i5694Jir+ZWB+qZ3s7At8EH8ZTXcTnnnTrwdNZqnCikY/8LOzT4Hjvx/gP+pk2snOwkDwAPw7gA/aeYvew4pGP/GLlzwXcN4D8DkAKvbOzq5xEMDn4dM1eMYtvxo0meUCKxqDwM/PPBxw3gTwOwE6ojzzG8MC+imAfwF5n8PUzv2DZrPcYEVjkLjjOVWsPPR0gM4F+68EsMpOdmpxD4CvwXG24Lib7xw0meUMKxplwT0vG0HTOxPkbwTjFQAm7WQnfgOibwDYgqntOyTFsxgQrGiUEQ+cOIbZiReC+TQQnwbGswA4y2Cycw7AzQCuB+F6O6lZTljRGAb87PRD4XungnAagNMAPLVVMPSTnXMAfgDgFhDfhNohO3DsdfVBk7Iww4rGMOKuFx0Ft/Jc+P4JAG8AsAHAmpJPdvog3A3mO0G4HR5uxWL9dmy4vTFoYhbZYEVjqeCnL/gdeO4GODgBzM8A81NAOAbgFQNgsxfAboB/BsZd4MpujC3+0L6Dc2nAisZSxw9feBhq3jEg5xj4fAwcejJ8fx1AqwGsBmE1gDEQJsGoGCz9FoQ5MM8Bzj6AHwHwMMB7wdiDCt0Lxr1oTvwGz/zuwf4cnMUgYEXDIop7njeJ+WpLPGa9BTx/5/yAGVmUDFY0LCwsMsG+T8PCwiITrGhYWFhkghUNCwuLTLCiYWFhkQlWNCwsLDLBioaFhUUmWNGwsLDIBCsaFhYWmWBFw8LCIhOsaFhYWGSCFQ0LC4tMsKJhYWGRCVY0LCwsMsGKhoWFRSZY0bCwsMgEKxoWFhaZYEXDwsIiE6xoWFhYZIIVDQsLi0xwB03AIh+IiACAmbF582aSy3ft2hXmbdy4EQCwe/fuWL0iMTU1xQCwZcuWSP769esjL6LdtGkTt+mD7Utqhw72xcIlg0oMAgHYuHGjMvDXrVsXyZueno5sT01NYe/evUbB2L9/fypBWb16tdFhnvSkJ/Hu3btlfpF9pqenYzampqY4EBtRZC699NLWF2yto5YGVjQGACIilSisX78+EriBGIgisHr16jCtCvQDBw7QUUcdFcmbmZlRCY0yPwsmJyd5enpamS9u33///TjkkENijiYK0P79+8N0IDKyuOzatYuBjqgEI1rodG4AABASSURBVBYrKP2FFY0eIhg1XHrppaE4yKMFWRgCUZAFYXJykoCoAExMTITpgwcPEgAcdthhEQ6zs7MRO2vWrInULwITExP8yCOPRPJWrFgRcax9+/aFdQXOYToQmpmZmch+gbAEoqISlGCUYsWkP7CiUSCIiHQCkUYcZGEIROHgwYMkikEgBGNjY+G+c3NzEREYGRlRisLCwgIBwCGHHNLl0bZw4MABAMDo6KjSker1eiR/fHw83J6fn2cgKjD79u0LhSUYyagEJY2Y7Nq1iwMhsZc5xcGKRheQRUK8vFi3bh3pBCKNOMzOztKaNWvCEUEgCrIYBNuBGLTtR7YDVKtV7eiiXq+nGnmMjIxoHabRaCjLFhcXw/xAXGQxCbZ1opJFTEQhMYmIFZB8sKKRAeJchGokIYqEPILQCUSSOCwsLFAwKlhYWCBZEEQhEANflT8xMRE7psXFxVyXKbVaLeY4Bw+2PuEqCsvs7Gy4LeaLAjM6OsozMzNh+sCBA6G4BOlATIJLoWB0Mjc3x+22Q0FJIyLiJY29nMkGKxoJSCMUppFEIBLj4+MEtEYQwWWFTiBkcQgEIAj+er1OK1a0PgZfr9cpEINAAMbHxyNi4LpumE4SifHxcWX+3NycsZ9EEWk2myznz83NhWlRXFSiEghKICaykMijkvn5eQ5EJBiRqEREvKTRjUKsgCTDioYGuksP3YhCHk2oRhKySIhiUavVCABWrlyJhYUFCgRCFIyJiQksLi6SKAqBIIhiIItGpVIJ041GI5gPCY8162hDFIj5+db3oavVapjneV5ENETBCfYNhCUor9VqLIpJIByykASXOqOjoxyIhygi4kgkEBDxciZJQMQRiL2EUaNy6aWXDppDqUAtOIcddphzyimn0L59+5y1a9fSunXraHZ21qnVas7Y2BjNz8878/PzNDk5SfV63XFd16nVarRq1SqnWq0SM1OlUnEajYYzNzdHjuM4ruvSxMSE02w2ncnJSWo0Gg4z0+joqNNsNh1mJt/3nYWFBWd8fJyq1So1m02nUqk41WqVKpWK47ou1et1J7DPzKFtZnbGx8edRqNRISIn+Oc4TphmZmd0dNRB625gp9lshnVHR0edarWq/ef7vkNEju/7juM4BCDMr1QqJLQRpn3fd8bGxsjzPKdWq1E7j4jIGRkZofn5eYeIHNd1qVKpULVapZGREfI8zxkdHaW5uTmnUqmQ53nEzDQ2NkaTk5Oo1+tUqVQcz/PC0Rwz08MPP+y4rkuu64Zi7bouzc3Nkeu61Gg0aHJyEvfee29wwqRarUbz8/O0bt06/PrXv8batWtpamoKAGj37t106qmnwsZJB1Y02gjE4pRTTqGpqSkiItq3b19MLPbv30979+511q5dG4pFo9FwVq1aRfV63QkCudFoOLJQACDHccIAC4TCcRyn2Ww64+Pj1Gw2nZGRkVAUfN93gmBpNpuOKBCjo6MUlAd2G42GMzIyQoI4VIjIGRsbc6rVakRAPM+rjIyMOK7rOq7rhkKCtpj4vh8RiKCe67pOW8yoHfDOyMgIVatVx/M8x3EcZ2RkhHzfd9ojpXazHcEIhMJxHHJdl3zfp5GREVpcXAz6gDzPo2q1Sp7n0ejoKC0uLlKlUqHf/va3TqVSoVqthkBAJiYmqF6vh/M/zEwzMzM0Pj4OZg7ndALxcBwHk5OTGBkZocceewyw4pEa9vIEnUuRLJchpksQ8fJDnJ8QLzWq1SqpLjlc1yX50qMtBjQ2NhZeSlQqFWo2mzQyMoLgt9Fo0OjoaHgJ0g72SHmbF4J8AKjVapFtHVzXDS4RItv1eh1A6xKlXq+H+b7vc5C/sLCAIM913bBecClTq9V4fn4e1Wo1zBMvYZrNJsuXMsFljOoSRr58kec/xLkP+bIluKtVvGwR5zwALOugsaIBUDDJKQuGOMEZ3GmpEoyxsbHIfIU4oRnMVQQikVYsgnkIMV8UikBIZJEQBSIQlFqtFgqCKCSBWKi2VVhcXAwFQd4OBMJ1XQ7y6/V6REiC/EBExDLP87QCIopFICSBiMjiMTo6yo8//ng4iVqv11mcSB0fH2dZOHRzHvJ8h50sbWFZX560L0kKEYyFhQWamJgIRhk0Pj5OzEztuYiYYLQvMcLLFM/zyHVdajabTq1WC9Oe5wXX+rH5gfaw2/E8L5xLcF3XqVarREROo9FwqtUqBb+u6zqO45Dv++GlDVqXDpVKpRK5PKlWq05weRTkVSqVsB0AzsjICLXzwl8ADhHR4uJi0CYBoGCep315Qu2gC+cigr4CgGazCcdxqFqtIignIjQaDbTrAQCq1Spc18X8/DzVajUsLi6iXq+H6fblE0ZHR+G6LlzXpYWFBYyPj2N8fBwjIyN47LHHiJmxZs0aPProo8F8Cebn52n16tXYt28f1q1bh9nZWaxdu5Z27dqF3bt3Y+vWrX3z07Jh2T4aL66OBE+B7tmzJzI8Dy5J0owwgpFFsK/pciQYPahGF2NjY2F5pVIJ/zWbTXIcJ9z2PC+cgAzyx8bGKBCFQBjEeYi2AFRc13WYudKeYA1/q9VqhYhcInKbzabbbDbdYDsoZ+ZKsA8zVwKbvu+HbbiuG4pSMCcScB0bG4vkVyoVGh0dhXhswb+gjxqNBlUqlUCAIiOz9pxR2MdB/wfp4NIw+NssLCzQ3NwcHTx4kGZnZ+mwww7DwYMHKek5nOCO3o0bN2LXrl20efNmCh4TWG5YtqIRYNeuXRTcd7FhwwaIowyg9QBYko1gDkO+JAFagiHeXLW4uEjyEqd4b4QoJEDnksRxnPBSpNlsRi5DgknBoF5wqeE4DgX/giANRgVikFcqFcdxHIeZK67rVsbGxiL/XNetuK5baU/COu1VnDBNrSWasI3gn8gBiF4+BWnHcSKXWc1mM7w0A1oCIS4Py/ecBP9E4RBvcpNvmxdvnw+ewwnuwg0e4gvuswFa81niA4O9fr3AMGDZi0YS5CdGAwQOlwYrVqww3qad4z4JAAjnLYDoJGbS3ERQp9lsUrVahed5wUoFxG0xv9lsUvsSKtYe0LpUkCHWSZpkVUEUCyDeT7ob0bJAfqBPRNrXBSw3WNFA5+UxQOtWY/ExbfmpywDiU53BQ1u6h7eCSbqDBw+iVquxfAu2eAdlcLNUgGCiUJw8DFYgfN8PJxKDicjFxcVwUtL3/UjdxcVFMDP7vs/NZtN3HMdnZnYcx/c8z/c8z282mx4zN5vNpiemicjzPM/3fT/cp9lsBpvcaDQgt6VKBxOkYl0ACI4tOGaxL4Jfue+CydBgW7wpLA3Em8AAIJgMvf/++wF0VlLS2lsuWLaiwcy8adMmXr9+ffjyF9XLYURMTk5y8NDUihUreGJigsfHxzkQidHRURafoxCXA8XbpcWVgMDpa7Uae57H4oqB53ksriz4vh8RDt/32XEc3/d99jyPHcfxR0dH/UAU2vVDgajVap4oEJ7n+Y1Gw2s0Gh4AL0g3Gg3P9/2m7/tNMU+sI9oIBCT4XVhYYMdx/IWFBfZ9n0dHR/12uywLWXC8wa94zEDr7lLdKopqVQWIiodu+VV8RF9MA4i8+yNh6XVZYlm/7i9YNtu8eTN27dqF9evX0/T0NK9btw7T09NYvXo19u/fTzMzMzw5OYnp6Wlat24dz8zMYHx8nBYWFjh47mNubg4jIyPUXuLDwsICarUatYUDANBoNMLfZrOJZrMJILxUCLcdx+H25YDMlx3HofYdphgbG+NGo0Ft8aD5+XlqB0xsuVVMB5cvi4uLYZqZY/dtiJDvzRCXW+fm5uC6Lge/juOEo4B6vQ5xFNJoNNhxHFQqFW40Gmg0GizuS0TseV4oBMzMnueh2Wxys9mMCEaz2eRGowHHcSK3nacRjGCUIT7wlrTk2h6Rsug7Xbjf0GJZiwa31/KShAMA9u/fj8nJSRw8eDB84Kq9ksLz8/MYHx+PPNRVr9cxOjrKwUSc4zjcnqQLRaPRaKBWq7HjOCQEMLfT7HleOFFYq9V4cXGRPM/j4B6NdnCS4zjkeR6L92wEk4qO44R5AOC6rigWFIgB0Jl3EPNEBPdaiF0obDMzo9FooFqtcnt5lJvNJlzX5ZGRkcgNXsElTdsmExEqlQovLi4G92+EotO+LEGz2WTHcbgtqhBFIxCLRqMhigWIKHaPRqVS4fn5eTiOk/oejampKd69e7d9rB725q4QurtCAYQrKqq7QoH4E6xpb/QS06qbvQBE8lQ3fAGdB9KClRagcxPX6OgogM6DauJIQ5ycDEZDYt0A4sNowXxDm0ds1BHUDwRCvIFLvgsUQOTSQrwEEct0d4K2ecdGFoFIiGIxMTHBCwsLscfpVWLR/tvHLkmWu1gEWNYjDRHtUUdwuULi27yDUQcAbosHAHClUqH2Eh3PzMzQ/Pw8VqxYwUQUPP7ORET1ep2CS4uFhQVaXFzkQECCJcn2HZB04MABmpiYYN/3ETybsbCwgPaDaoE4hDdGVSoVYuZwKdL3/eAXlUqF5ufnw9vI28dJ9XodIyMjcF03FIggyFWQL5MAxCYtg2Cq1+uR27+DSczFxUWMjIzEbhVnZg5s1Go1bs+HRJ5+PXDgQLAvO46DYLTRPn4+ePAgRkdHmYjC0UW9Xsfq1avDkcXCwkJMLADwzMyM8tbx6enpUCyuvfbaZX0HqAw70lBAfodGmpEHgNgNYIB69CH+yiMQoPPeDHEUAkRHHUD8sXixTH4cPli+TFrelesFE7Xyqo4MsZ7qMXnVI/KBKIhpoPW+jaIfjxeEAmlHFsv9dnEdrGgkQLxsSfOmrrwv4FGJCKAWkmBbJyaA+cU7wf0Ned/aFUB8wY4qH4i/kEclDkBHEOTtNs+YSMhv9NK9iEclFKoH0ux7NNLDikZKBLcMZxEQQP9yHgDGF/SI6WAy1SQmYp6YL77iT35Rj5yXBSrBEMVC9eo/UQhU4iC+qat9DOJcSjiSANQioZrUBOwr/4qGFY2c0L3ZC0gWESA6EinihcKqlwmrXiSsuzM1yA9eIyhjdnY2aFfrMHKZfKOV/C5QoDNiEHhExEF+J6j4gmHVSAKIi8Qdd9yBww8/PHLpAdhVkLywolEQkkQEQOS5lryfLhAFBYh+ukD12QLxxcTBtu4YJicnjccYBLwKYuDLQqDKF986Ln43RScObX5KgQA6r+0D7GcMeg0rGj2COJkKmIUESP+RJPHLaKoPJInPUsgCI0L+TkpeiMEvQv6Akvxtk6AOEP1SWzcfTRK/wGYvN3oHKxp9hDgvAuT7HKPqISrxqUwg+hU20+cXu/3Kmnz7tcAn9rlG8VONqud5AlEQvwWb9vOMdgTRX1jRKAlkQQH0ogJEP/osf/BZfLQ/QL+e2FR9IFp8ABCIfhDa9DFo+yHocsKKxhAhEBbxsgfoiAvQeaFQmvc+7NmzhzZs2JCLizi5mATxi/BA9KvwwWUEYAVhWGBFYxlA94Yp8W8vipAJ4tOduhdX2eBf2vj/AdH4FD9SXHAPAAAAAElFTkSuQmCC;whiteSpace=wrap;html=1;" parent="1" vertex="1">
          <mxGeometry x="-270" y="-60" width="49.51" height="60" as="geometry" />
        </mxCell>
        <mxCell id="NrVjd3gvD7i43o5AjEjT-63" value="" style="points=[[0,0,0],[0.25,0,0],[0.5,0,0],[0.75,0,0],[1,0,0],[0,1,0],[0.25,1,0],[0.5,1,0],[0.75,1,0],[1,1,0],[0,0.25,0],[0,0.5,0],[0,0.75,0],[1,0.25,0],[1,0.5,0],[1,0.75,0]];outlineConnect=0;fontColor=#232F3E;fillColor=#ED7100;strokeColor=#ffffff;dashed=0;verticalLabelPosition=bottom;verticalAlign=top;align=center;html=1;fontSize=12;fontStyle=0;aspect=fixed;shape=mxgraph.aws4.resourceIcon;resIcon=mxgraph.aws4.compute;shadow=1;whiteSpace=wrap;" parent="1" vertex="1">
          <mxGeometry x="-570" y="160" width="80" height="80" as="geometry" />
        </mxCell>
        <mxCell id="NrVjd3gvD7i43o5AjEjT-64" value="" style="points=[[0,0,0],[0.25,0,0],[0.5,0,0],[0.75,0,0],[1,0,0],[0,1,0],[0.25,1,0],[0.5,1,0],[0.75,1,0],[1,1,0],[0,0.25,0],[0,0.5,0],[0,0.75,0],[1,0.25,0],[1,0.5,0],[1,0.75,0]];outlineConnect=0;fontColor=#232F3E;fillColor=#ED7100;strokeColor=#ffffff;dashed=0;verticalLabelPosition=bottom;verticalAlign=top;align=center;html=1;fontSize=12;fontStyle=0;aspect=fixed;shape=mxgraph.aws4.resourceIcon;resIcon=mxgraph.aws4.compute;shadow=1;whiteSpace=wrap;" parent="1" vertex="1">
          <mxGeometry x="-570" y="-40" width="80" height="80" as="geometry" />
        </mxCell>
        <mxCell id="NrVjd3gvD7i43o5AjEjT-65" value="" style="points=[[0,0,0],[0.25,0,0],[0.5,0,0],[0.75,0,0],[1,0,0],[0,1,0],[0.25,1,0],[0.5,1,0],[0.75,1,0],[1,1,0],[0,0.25,0],[0,0.5,0],[0,0.75,0],[1,0.25,0],[1,0.5,0],[1,0.75,0]];outlineConnect=0;fontColor=#232F3E;fillColor=#ED7100;strokeColor=#ffffff;dashed=0;verticalLabelPosition=bottom;verticalAlign=top;align=center;html=1;fontSize=12;fontStyle=0;aspect=fixed;shape=mxgraph.aws4.resourceIcon;resIcon=mxgraph.aws4.compute;shadow=1;whiteSpace=wrap;" parent="1" vertex="1">
          <mxGeometry x="-570" y="260" width="80" height="80" as="geometry" />
        </mxCell>
        <mxCell id="NrVjd3gvD7i43o5AjEjT-66" value="" style="points=[[0,0,0],[0.25,0,0],[0.5,0,0],[0.75,0,0],[1,0,0],[0,1,0],[0.25,1,0],[0.5,1,0],[0.75,1,0],[1,1,0],[0,0.25,0],[0,0.5,0],[0,0.75,0],[1,0.25,0],[1,0.5,0],[1,0.75,0]];outlineConnect=0;fontColor=#232F3E;fillColor=#ED7100;strokeColor=#ffffff;dashed=0;verticalLabelPosition=bottom;verticalAlign=top;align=center;html=1;fontSize=12;fontStyle=0;aspect=fixed;shape=mxgraph.aws4.resourceIcon;resIcon=mxgraph.aws4.compute;shadow=1;whiteSpace=wrap;" parent="1" vertex="1">
          <mxGeometry x="-570" y="360" width="80" height="80" as="geometry" />
        </mxCell>
        <mxCell id="NrVjd3gvD7i43o5AjEjT-69" value="&lt;font style=&quot;font-size: 14px;&quot;&gt;&lt;b&gt;Console US&lt;/b&gt;&lt;/font&gt;" style="text;html=1;align=center;verticalAlign=middle;rounded=0;fontFamily=Architects Daughter;fontSource=https%3A%2F%2Ffonts.googleapis.com%2Fcss%3Ffamily%3DArchitects%2BDaughter;whiteSpace=wrap;" parent="1" vertex="1">
          <mxGeometry x="-660" y="-20" width="90" height="30" as="geometry" />
        </mxCell>
        <mxCell id="NrVjd3gvD7i43o5AjEjT-70" value="&lt;font style=&quot;font-size: 14px;&quot;&gt;&lt;b&gt;Console IND&lt;/b&gt;&lt;/font&gt;" style="text;html=1;align=center;verticalAlign=middle;rounded=0;fontFamily=Architects Daughter;fontSource=https%3A%2F%2Ffonts.googleapis.com%2Fcss%3Ffamily%3DArchitects%2BDaughter;whiteSpace=wrap;" parent="1" vertex="1">
          <mxGeometry x="-660" y="80" width="90" height="30" as="geometry" />
        </mxCell>
        <mxCell id="NrVjd3gvD7i43o5AjEjT-71" value="&lt;font style=&quot;font-size: 14px;&quot;&gt;&lt;b&gt;Console AUS&lt;/b&gt;&lt;/font&gt;" style="text;html=1;align=center;verticalAlign=middle;rounded=0;fontFamily=Architects Daughter;fontSource=https%3A%2F%2Ffonts.googleapis.com%2Fcss%3Ffamily%3DArchitects%2BDaughter;whiteSpace=wrap;" parent="1" vertex="1">
          <mxGeometry x="-660" y="280" width="90" height="30" as="geometry" />
        </mxCell>
        <mxCell id="NrVjd3gvD7i43o5AjEjT-72" value="&lt;font style=&quot;font-size: 14px;&quot;&gt;&lt;b&gt;Console SA&lt;/b&gt;&lt;/font&gt;" style="text;html=1;align=center;verticalAlign=middle;rounded=0;fontFamily=Architects Daughter;fontSource=https%3A%2F%2Ffonts.googleapis.com%2Fcss%3Ffamily%3DArchitects%2BDaughter;whiteSpace=wrap;" parent="1" vertex="1">
          <mxGeometry x="-660" y="380" width="90" height="30" as="geometry" />
        </mxCell>
        <mxCell id="NrVjd3gvD7i43o5AjEjT-73" value="&lt;font style=&quot;font-size: 14px;&quot;&gt;&lt;b&gt;Console UAE&lt;/b&gt;&lt;/font&gt;" style="text;html=1;align=center;verticalAlign=middle;rounded=0;fontFamily=Architects Daughter;fontSource=https%3A%2F%2Ffonts.googleapis.com%2Fcss%3Ffamily%3DArchitects%2BDaughter;whiteSpace=wrap;" parent="1" vertex="1">
          <mxGeometry x="-660" y="180" width="90" height="30" as="geometry" />
        </mxCell>
        <mxCell id="NrVjd3gvD7i43o5AjEjT-76" value="&lt;font size=&quot;1&quot; style=&quot;&quot; face=&quot;Garamond&quot;&gt;&lt;b style=&quot;font-size: 15px;&quot;&gt;REST API Data Extraction Application&lt;/b&gt;&lt;/font&gt;&lt;div&gt;&lt;font size=&quot;1&quot; style=&quot;&quot; face=&quot;Garamond&quot;&gt;&lt;b style=&quot;font-size: 15px;&quot;&gt;Stack&lt;/b&gt;&lt;/font&gt;&lt;/div&gt;" style="text;html=1;align=center;verticalAlign=middle;rounded=0;fontFamily=Architects Daughter;fontSource=https%3A%2F%2Ffonts.googleapis.com%2Fcss%3Ffamily%3DArchitects%2BDaughter;whiteSpace=wrap;" parent="1" vertex="1">
          <mxGeometry x="-210" y="-70" width="160" height="60" as="geometry" />
        </mxCell>
        <mxCell id="NrVjd3gvD7i43o5AjEjT-78" value="" style="edgeStyle=orthogonalEdgeStyle;html=1;endArrow=block;elbow=vertical;startArrow=none;startFill=0;endFill=1;strokeColor=#545B64;rounded=1;curved=0;entryX=0;entryY=0.5;entryDx=0;entryDy=0;entryPerimeter=0;flowAnimation=1;shadow=1;exitX=1;exitY=0.5;exitDx=0;exitDy=0;exitPerimeter=0;jumpStyle=arc;jumpSize=16;" parent="1" source="NrVjd3gvD7i43o5AjEjT-63" target="NrVjd3gvD7i43o5AjEjT-10" edge="1">
          <mxGeometry width="100" relative="1" as="geometry">
            <mxPoint x="-370" y="170" as="sourcePoint" />
            <mxPoint x="-50" y="210" as="targetPoint" />
            <Array as="points">
              <mxPoint x="-410" y="200" />
              <mxPoint x="-410" y="170" />
            </Array>
          </mxGeometry>
        </mxCell>
        <mxCell id="NrVjd3gvD7i43o5AjEjT-79" value="" style="edgeStyle=orthogonalEdgeStyle;html=1;endArrow=block;elbow=vertical;startArrow=none;startFill=0;endFill=1;strokeColor=#545B64;rounded=1;curved=0;flowAnimation=1;shadow=1;exitX=1;exitY=0.5;exitDx=0;exitDy=0;exitPerimeter=0;jumpStyle=arc;jumpSize=16;entryX=0;entryY=0.5;entryDx=0;entryDy=0;entryPerimeter=0;" parent="1" source="NrVjd3gvD7i43o5AjEjT-65" target="NrVjd3gvD7i43o5AjEjT-9" edge="1">
          <mxGeometry width="100" relative="1" as="geometry">
            <mxPoint x="-370" y="270" as="sourcePoint" />
            <mxPoint x="-50" y="310" as="targetPoint" />
            <Array as="points">
              <mxPoint x="-270" y="300" />
              <mxPoint x="-270" y="300" />
            </Array>
          </mxGeometry>
        </mxCell>
        <mxCell id="NrVjd3gvD7i43o5AjEjT-80" value="" style="edgeStyle=orthogonalEdgeStyle;html=1;endArrow=block;elbow=vertical;startArrow=none;startFill=0;endFill=1;strokeColor=#545B64;rounded=1;curved=0;entryX=0;entryY=0.75;entryDx=0;entryDy=0;entryPerimeter=0;flowAnimation=1;shadow=1;exitX=1;exitY=0.5;exitDx=0;exitDy=0;exitPerimeter=0;jumpStyle=arc;jumpSize=16;" parent="1" source="NrVjd3gvD7i43o5AjEjT-66" target="NrVjd3gvD7i43o5AjEjT-9" edge="1">
          <mxGeometry width="100" relative="1" as="geometry">
            <mxPoint x="-370" y="370" as="sourcePoint" />
            <mxPoint x="-50" y="410" as="targetPoint" />
            <Array as="points">
              <mxPoint x="-410" y="400" />
              <mxPoint x="-410" y="320" />
            </Array>
          </mxGeometry>
        </mxCell>
        <mxCell id="NrVjd3gvD7i43o5AjEjT-81" value="&lt;b style=&quot;&quot;&gt;&lt;font style=&quot;font-size: 16px;&quot;&gt;SHQ VPC&lt;/font&gt;&lt;/b&gt;" style="text;html=1;align=center;verticalAlign=middle;rounded=0;fontFamily=Architects Daughter;fontSource=https%3A%2F%2Ffonts.googleapis.com%2Fcss%3Ffamily%3DArchitects%2BDaughter;whiteSpace=wrap;" parent="1" vertex="1">
          <mxGeometry x="360" y="510" width="80" height="50" as="geometry" />
        </mxCell>
        <mxCell id="NrVjd3gvD7i43o5AjEjT-82" value="&lt;b style=&quot;&quot;&gt;&lt;font style=&quot;font-size: 16px;&quot;&gt;ClickHouse Cloud&lt;/font&gt;&lt;/b&gt;" style="text;html=1;align=center;verticalAlign=middle;rounded=0;fontFamily=Architects Daughter;fontSource=https%3A%2F%2Ffonts.googleapis.com%2Fcss%3Ffamily%3DArchitects%2BDaughter;whiteSpace=wrap;" parent="1" vertex="1">
          <mxGeometry x="650" y="150" width="80" height="50" as="geometry" />
        </mxCell>
        <mxCell id="NrVjd3gvD7i43o5AjEjT-88" value="" style="rounded=0;html=1;hachureGap=4;fontFamily=Architects Daughter;fontSource=https%3A%2F%2Ffonts.googleapis.com%2Fcss%3Ffamily%3DArchitects%2BDaughter;strokeWidth=2;fillColor=none;whiteSpace=wrap;" parent="1" vertex="1">
          <mxGeometry x="-80" y="-680" width="920" height="390" as="geometry" />
        </mxCell>
        <mxCell id="NrVjd3gvD7i43o5AjEjT-87" value="" style="endArrow=none;html=1;rounded=1;hachureGap=4;fontFamily=Helvetica;entryX=0.5;entryY=1;entryDx=0;entryDy=0;exitX=0.5;exitY=0;exitDx=0;exitDy=0;dashed=1;dashPattern=8 8;flowAnimation=0;shadow=1;strokeColor=#545B64;align=center;verticalAlign=middle;fontSize=11;fontColor=default;labelBackgroundColor=default;elbow=vertical;jumpStyle=arc;jumpSize=16;startArrow=none;startFill=0;endFill=0;curved=0;" parent="1" source="NrVjd3gvD7i43o5AjEjT-72" target="NrVjd3gvD7i43o5AjEjT-71" edge="1">
          <mxGeometry width="50" height="50" relative="1" as="geometry">
            <mxPoint x="-640" y="380" as="sourcePoint" />
            <mxPoint x="-590" y="330" as="targetPoint" />
          </mxGeometry>
        </mxCell>
        <mxCell id="NrVjd3gvD7i43o5AjEjT-89" value="&lt;font style=&quot;font-size: 16px;&quot;&gt;Internet&lt;/font&gt;" style="sketch=0;outlineConnect=0;fontColor=#232F3E;strokeColor=#ffffff;fillColor=#8C4FFF;dashed=0;verticalLabelPosition=bottom;verticalAlign=top;align=center;html=1;fontSize=12;fontStyle=0;aspect=fixed;shape=mxgraph.aws4.resourceIcon;resIcon=mxgraph.aws4.internet;hachureGap=4;jiggle=2;curveFitting=1;fontFamily=Helvetica;shadow=1;whiteSpace=wrap;" parent="1" vertex="1">
          <mxGeometry x="760" y="-400" width="80" height="80" as="geometry" />
        </mxCell>
        <mxCell id="NrVjd3gvD7i43o5AjEjT-103" value="" style="sketch=0;points=[[0,0,0],[0.25,0,0],[0.5,0,0],[0.75,0,0],[1,0,0],[0,1,0],[0.25,1,0],[0.5,1,0],[0.75,1,0],[1,1,0],[0,0.25,0],[0,0.5,0],[0,0.75,0],[1,0.25,0],[1,0.5,0],[1,0.75,0]];gradientDirection=north;outlineConnect=0;fontColor=#232F3E;gradientColor=none;fillColor=#ED7100;strokeColor=#ffffff;dashed=0;verticalLabelPosition=bottom;verticalAlign=top;align=center;html=1;fontSize=12;fontStyle=0;aspect=fixed;shape=mxgraph.aws4.resourceIcon;resIcon=mxgraph.aws4.general;hachureGap=4;jiggle=2;curveFitting=1;fontFamily=Helvetica;shadow=1;whiteSpace=wrap;" parent="1" vertex="1">
          <mxGeometry x="160" y="-480" width="80" height="80" as="geometry" />
        </mxCell>
        <mxCell id="NrVjd3gvD7i43o5AjEjT-146" style="edgeStyle=orthogonalEdgeStyle;rounded=1;hachureGap=4;orthogonalLoop=1;jettySize=auto;html=1;exitX=0;exitY=0.5;exitDx=0;exitDy=0;exitPerimeter=0;fontFamily=Helvetica;shadow=1;strokeColor=#545B64;align=center;verticalAlign=middle;fontSize=11;fontColor=default;labelBackgroundColor=default;elbow=vertical;startArrow=block;startFill=1;endArrow=block;endFill=1;flowAnimation=1;curved=0;entryX=0.613;entryY=0.001;entryDx=0;entryDy=0;entryPerimeter=0;" parent="1" source="NrVjd3gvD7i43o5AjEjT-104" target="NrVjd3gvD7i43o5AjEjT-56" edge="1">
          <mxGeometry relative="1" as="geometry">
            <mxPoint x="50" y="-410" as="sourcePoint" />
            <mxPoint x="92" y="-130" as="targetPoint" />
            <Array as="points">
              <mxPoint x="-40" y="-440" />
              <mxPoint x="-40" y="-370" />
              <mxPoint x="90" y="-370" />
              <mxPoint x="90" y="-250" />
              <mxPoint x="27" y="-250" />
            </Array>
          </mxGeometry>
        </mxCell>
        <mxCell id="NrVjd3gvD7i43o5AjEjT-104" value="" style="sketch=0;points=[[0,0,0],[0.25,0,0],[0.5,0,0],[0.75,0,0],[1,0,0],[0,1,0],[0.25,1,0],[0.5,1,0],[0.75,1,0],[1,1,0],[0,0.25,0],[0,0.5,0],[0,0.75,0],[1,0.25,0],[1,0.5,0],[1,0.75,0]];gradientDirection=north;outlineConnect=0;fontColor=#232F3E;gradientColor=none;fillColor=#ED7100;strokeColor=#ffffff;dashed=0;verticalLabelPosition=bottom;verticalAlign=top;align=center;html=1;fontSize=12;fontStyle=0;aspect=fixed;shape=mxgraph.aws4.resourceIcon;resIcon=mxgraph.aws4.general;hachureGap=4;jiggle=2;curveFitting=1;fontFamily=Helvetica;shadow=1;whiteSpace=wrap;" parent="1" vertex="1">
          <mxGeometry y="-480" width="80" height="80" as="geometry" />
        </mxCell>
        <mxCell id="NrVjd3gvD7i43o5AjEjT-106" value="&lt;font style=&quot;font-size: 14px;&quot;&gt;&lt;b&gt;Azure Sentinel&lt;/b&gt;&lt;/font&gt;" style="text;html=1;align=center;verticalAlign=middle;rounded=0;fontFamily=Architects Daughter;fontSource=https%3A%2F%2Ffonts.googleapis.com%2Fcss%3Ffamily%3DArchitects%2BDaughter;whiteSpace=wrap;" parent="1" vertex="1">
          <mxGeometry x="-10" y="-400" width="100" height="30" as="geometry" />
        </mxCell>
        <mxCell id="NrVjd3gvD7i43o5AjEjT-108" value="&lt;font style=&quot;font-size: 14px;&quot;&gt;&lt;b&gt;Sentinel One&lt;/b&gt;&lt;/font&gt;" style="text;html=1;align=center;verticalAlign=middle;rounded=0;fontFamily=Architects Daughter;fontSource=https%3A%2F%2Ffonts.googleapis.com%2Fcss%3Ffamily%3DArchitects%2BDaughter;whiteSpace=wrap;" parent="1" vertex="1">
          <mxGeometry x="160" y="-400" width="80" height="30" as="geometry" />
        </mxCell>
        <mxCell id="NrVjd3gvD7i43o5AjEjT-111" value="&lt;font style=&quot;font-size: 14px;&quot;&gt;&lt;b&gt;Private Link&lt;/b&gt;&lt;/font&gt;" style="text;html=1;align=center;verticalAlign=middle;rounded=0;fontFamily=Architects Daughter;fontSource=https%3A%2F%2Ffonts.googleapis.com%2Fcss%3Ffamily%3DArchitects%2BDaughter;whiteSpace=wrap;" parent="1" vertex="1">
          <mxGeometry x="480" y="160" width="80" height="30" as="geometry" />
        </mxCell>
        <mxCell id="NrVjd3gvD7i43o5AjEjT-115" value="&lt;pre&gt;&lt;b style=&quot;&quot;&gt;&lt;font face=&quot;Garamond&quot;&gt;PORT: 443&lt;/font&gt;&lt;/b&gt;&lt;/pre&gt;" style="text;html=1;align=center;verticalAlign=middle;rounded=0;fontFamily=Architects Daughter;fontSource=https%3A%2F%2Ffonts.googleapis.com%2Fcss%3Ffamily%3DArchitects%2BDaughter;rotation=0;whiteSpace=wrap;" parent="1" vertex="1">
          <mxGeometry x="-400" y="170" width="80" height="30" as="geometry" />
        </mxCell>
        <mxCell id="NrVjd3gvD7i43o5AjEjT-116" value="&lt;font face=&quot;Garamond&quot;&gt;&lt;b&gt;HTTPS&lt;/b&gt;&lt;/font&gt;" style="text;html=1;align=center;verticalAlign=middle;rounded=0;fontFamily=Architects Daughter;fontSource=https%3A%2F%2Ffonts.googleapis.com%2Fcss%3Ffamily%3DArchitects%2BDaughter;rotation=0;whiteSpace=wrap;" parent="1" vertex="1">
          <mxGeometry x="-390" y="120" width="40" height="30" as="geometry" />
        </mxCell>
        <mxCell id="NrVjd3gvD7i43o5AjEjT-118" value="&lt;pre&gt;&lt;b style=&quot;&quot;&gt;&lt;font face=&quot;Garamond&quot;&gt;GZIP&lt;/font&gt;&lt;/b&gt;&lt;/pre&gt;" style="text;html=1;align=center;verticalAlign=middle;rounded=0;fontFamily=Architects Daughter;fontSource=https%3A%2F%2Ffonts.googleapis.com%2Fcss%3Ffamily%3DArchitects%2BDaughter;rotation=0;whiteSpace=wrap;" parent="1" vertex="1">
          <mxGeometry x="40" y="170" width="80" height="30" as="geometry" />
        </mxCell>
        <mxCell id="NrVjd3gvD7i43o5AjEjT-119" value="&lt;pre&gt;&lt;b style=&quot;&quot;&gt;&lt;font face=&quot;Garamond&quot;&gt;COMPRESSION&lt;/font&gt;&lt;/b&gt;&lt;/pre&gt;" style="text;html=1;align=center;verticalAlign=middle;rounded=0;fontFamily=Architects Daughter;fontSource=https%3A%2F%2Ffonts.googleapis.com%2Fcss%3Ffamily%3DArchitects%2BDaughter;rotation=0;whiteSpace=wrap;" parent="1" vertex="1">
          <mxGeometry x="40" y="140" width="80" height="30" as="geometry" />
        </mxCell>
        <mxCell id="NrVjd3gvD7i43o5AjEjT-122" value="&lt;font face=&quot;Garamond&quot; style=&quot;font-size: 15px;&quot;&gt;*Applications are not highly available and run indepentenly on each instance.&lt;/font&gt;" style="text;html=1;align=center;verticalAlign=middle;rounded=0;fontFamily=Architects Daughter;fontSource=https%3A%2F%2Ffonts.googleapis.com%2Fcss%3Ffamily%3DArchitects%2BDaughter;whiteSpace=wrap;" parent="1" vertex="1">
          <mxGeometry x="-20" y="-70" width="210" height="50" as="geometry" />
        </mxCell>
        <mxCell id="NrVjd3gvD7i43o5AjEjT-123" value="&lt;font style=&quot;font-size: 14px;&quot;&gt;&lt;b&gt;IBM QRadar&lt;/b&gt;&lt;/font&gt;" style="text;html=1;align=center;verticalAlign=middle;rounded=0;fontFamily=Architects Daughter;fontSource=https%3A%2F%2Ffonts.googleapis.com%2Fcss%3Ffamily%3DArchitects%2BDaughter;whiteSpace=wrap;" parent="1" vertex="1">
          <mxGeometry x="-620" y="470" width="110" height="30" as="geometry" />
        </mxCell>
        <mxCell id="NrVjd3gvD7i43o5AjEjT-143" style="edgeStyle=orthogonalEdgeStyle;rounded=1;hachureGap=4;orthogonalLoop=1;jettySize=auto;html=1;exitX=0.5;exitY=1;exitDx=0;exitDy=0;exitPerimeter=0;entryX=0;entryY=0;entryDx=0;entryDy=0;fontFamily=Helvetica;shadow=1;strokeColor=#545B64;align=center;verticalAlign=middle;fontSize=11;fontColor=default;labelBackgroundColor=default;elbow=vertical;startArrow=block;startFill=1;endArrow=block;endFill=1;flowAnimation=1;curved=0;" parent="1" source="NrVjd3gvD7i43o5AjEjT-124" target="NrVjd3gvD7i43o5AjEjT-142" edge="1">
          <mxGeometry relative="1" as="geometry">
            <Array as="points">
              <mxPoint x="-650" y="-310" />
              <mxPoint x="-450" y="-310" />
            </Array>
          </mxGeometry>
        </mxCell>
        <mxCell id="NrVjd3gvD7i43o5AjEjT-124" value="" style="sketch=0;points=[[0,0,0],[0.25,0,0],[0.5,0,0],[0.75,0,0],[1,0,0],[0,1,0],[0.25,1,0],[0.5,1,0],[0.75,1,0],[1,1,0],[0,0.25,0],[0,0.5,0],[0,0.75,0],[1,0.25,0],[1,0.5,0],[1,0.75,0]];gradientDirection=north;outlineConnect=0;fontColor=#232F3E;gradientColor=none;fillColor=#ED7100;strokeColor=#ffffff;dashed=0;verticalLabelPosition=bottom;verticalAlign=top;align=center;html=1;fontSize=12;fontStyle=0;aspect=fixed;shape=mxgraph.aws4.resourceIcon;resIcon=mxgraph.aws4.general;hachureGap=4;jiggle=2;curveFitting=1;fontFamily=Helvetica;shadow=1;whiteSpace=wrap;" parent="1" vertex="1">
          <mxGeometry x="-690" y="-490" width="80" height="80" as="geometry" />
        </mxCell>
        <mxCell id="NrVjd3gvD7i43o5AjEjT-125" value="&lt;font style=&quot;font-size: 14px;&quot;&gt;&lt;b&gt;Firemon&lt;/b&gt;&lt;/font&gt;" style="text;html=1;align=center;verticalAlign=middle;rounded=0;fontFamily=Architects Daughter;fontSource=https%3A%2F%2Ffonts.googleapis.com%2Fcss%3Ffamily%3DArchitects%2BDaughter;whiteSpace=wrap;" parent="1" vertex="1">
          <mxGeometry x="-730" y="-410" width="80" height="30" as="geometry" />
        </mxCell>
        <mxCell id="NrVjd3gvD7i43o5AjEjT-127" value="&lt;font face=&quot;Garamond&quot;&gt;&lt;b&gt;HTTPS&lt;/b&gt;&lt;/font&gt;" style="text;html=1;align=center;verticalAlign=middle;rounded=0;fontFamily=Architects Daughter;fontSource=https%3A%2F%2Ffonts.googleapis.com%2Fcss%3Ffamily%3DArchitects%2BDaughter;rotation=0;whiteSpace=wrap;" parent="1" vertex="1">
          <mxGeometry y="-290" width="40" height="30" as="geometry" />
        </mxCell>
        <mxCell id="NrVjd3gvD7i43o5AjEjT-128" value="&lt;pre&gt;&lt;b style=&quot;&quot;&gt;&lt;font face=&quot;Garamond&quot;&gt;PORT: 443&lt;/font&gt;&lt;/b&gt;&lt;/pre&gt;" style="text;html=1;align=center;verticalAlign=middle;rounded=0;fontFamily=Architects Daughter;fontSource=https%3A%2F%2Ffonts.googleapis.com%2Fcss%3Ffamily%3DArchitects%2BDaughter;rotation=0;whiteSpace=wrap;" parent="1" vertex="1">
          <mxGeometry x="-390" y="-290" width="80" height="30" as="geometry" />
        </mxCell>
        <mxCell id="NrVjd3gvD7i43o5AjEjT-138" value="&lt;font face=&quot;Garamond&quot;&gt;&lt;b&gt;HTTPS&lt;/b&gt;&lt;/font&gt;" style="text;html=1;align=center;verticalAlign=middle;rounded=0;fontFamily=Architects Daughter;fontSource=https%3A%2F%2Ffonts.googleapis.com%2Fcss%3Ffamily%3DArchitects%2BDaughter;rotation=0;whiteSpace=wrap;" parent="1" vertex="1">
          <mxGeometry x="-500" y="-290" width="40" height="30" as="geometry" />
        </mxCell>
        <mxCell id="NrVjd3gvD7i43o5AjEjT-139" value="&lt;pre&gt;&lt;b style=&quot;&quot;&gt;&lt;font face=&quot;Garamond&quot;&gt;PORT: 443&lt;/font&gt;&lt;/b&gt;&lt;/pre&gt;" style="text;html=1;align=center;verticalAlign=middle;rounded=0;fontFamily=Architects Daughter;fontSource=https%3A%2F%2Ffonts.googleapis.com%2Fcss%3Ffamily%3DArchitects%2BDaughter;rotation=0;whiteSpace=wrap;" parent="1" vertex="1">
          <mxGeometry x="100" y="-290" width="80" height="30" as="geometry" />
        </mxCell>
        <mxCell id="NrVjd3gvD7i43o5AjEjT-148" style="edgeStyle=orthogonalEdgeStyle;rounded=1;hachureGap=4;orthogonalLoop=1;jettySize=auto;html=1;exitX=0.5;exitY=1;exitDx=0;exitDy=0;fontFamily=Helvetica;shadow=1;strokeColor=#545B64;align=center;verticalAlign=middle;fontSize=11;fontColor=default;labelBackgroundColor=default;elbow=vertical;startArrow=block;startFill=1;endArrow=block;endFill=1;flowAnimation=1;curved=0;entryX=0.25;entryY=0;entryDx=0;entryDy=0;entryPerimeter=0;" parent="1" source="NrVjd3gvD7i43o5AjEjT-142" target="NrVjd3gvD7i43o5AjEjT-56" edge="1">
          <mxGeometry relative="1" as="geometry">
            <Array as="points">
              <mxPoint x="-410" y="-160" />
              <mxPoint x="-162" y="-160" />
            </Array>
          </mxGeometry>
        </mxCell>
        <mxCell id="NrVjd3gvD7i43o5AjEjT-142" value="" style="image;html=1;image=img/lib/clip_art/networking/Firewall_02_128x128.png;sketch=1;hachureGap=4;jiggle=2;curveFitting=1;fontFamily=Architects Daughter;fontSource=https%3A%2F%2Ffonts.googleapis.com%2Fcss%3Ffamily%3DArchitects%2BDaughter;whiteSpace=wrap;" parent="1" vertex="1">
          <mxGeometry x="-450" y="-270" width="80" height="80" as="geometry" />
        </mxCell>
        <mxCell id="NrVjd3gvD7i43o5AjEjT-149" value="&lt;font style=&quot;font-size: 16px;&quot;&gt;On-Prem&lt;/font&gt;" style="sketch=0;outlineConnect=0;fontColor=#232F3E;strokeColor=#ffffff;fillColor=#8C4FFF;dashed=0;verticalLabelPosition=bottom;verticalAlign=top;align=center;html=1;fontSize=12;fontStyle=0;aspect=fixed;shape=mxgraph.aws4.resourceIcon;resIcon=mxgraph.aws4.internet;hachureGap=4;jiggle=2;curveFitting=1;fontFamily=Helvetica;shadow=1;whiteSpace=wrap;" parent="1" vertex="1">
          <mxGeometry x="-210" y="-400" width="80" height="80" as="geometry" />
        </mxCell>
        <mxCell id="NrVjd3gvD7i43o5AjEjT-150" value="&lt;font style=&quot;font-size: 14px;&quot;&gt;&lt;b&gt;SHQ Firewall&lt;/b&gt;&lt;/font&gt;" style="text;html=1;align=center;verticalAlign=middle;rounded=0;fontFamily=Architects Daughter;fontSource=https%3A%2F%2Ffonts.googleapis.com%2Fcss%3Ffamily%3DArchitects%2BDaughter;whiteSpace=wrap;" parent="1" vertex="1">
          <mxGeometry x="-390" y="-210" width="80" height="30" as="geometry" />
        </mxCell>
        <mxCell id="NrVjd3gvD7i43o5AjEjT-152" value="" style="points=[[0,0,0],[0.25,0,0],[0.5,0,0],[0.75,0,0],[1,0,0],[0,1,0],[0.25,1,0],[0.5,1,0],[0.75,1,0],[1,1,0],[0,0.25,0],[0,0.5,0],[0,0.75,0],[1,0.25,0],[1,0.5,0],[1,0.75,0]];outlineConnect=0;fontColor=#232F3E;fillColor=#ED7100;strokeColor=#ffffff;dashed=0;verticalLabelPosition=bottom;verticalAlign=top;align=center;html=1;fontSize=12;fontStyle=0;aspect=fixed;shape=mxgraph.aws4.resourceIcon;resIcon=mxgraph.aws4.compute;shadow=1;whiteSpace=wrap;" parent="1" vertex="1">
          <mxGeometry x="-450" y="-490" width="80" height="80" as="geometry" />
        </mxCell>
        <mxCell id="NrVjd3gvD7i43o5AjEjT-153" value="" style="points=[[0,0,0],[0.25,0,0],[0.5,0,0],[0.75,0,0],[1,0,0],[0,1,0],[0.25,1,0],[0.5,1,0],[0.75,1,0],[1,1,0],[0,0.25,0],[0,0.5,0],[0,0.75,0],[1,0.25,0],[1,0.5,0],[1,0.75,0]];outlineConnect=0;fontColor=#232F3E;fillColor=#ED7100;strokeColor=#ffffff;dashed=0;verticalLabelPosition=bottom;verticalAlign=top;align=center;html=1;fontSize=12;fontStyle=0;aspect=fixed;shape=mxgraph.aws4.resourceIcon;resIcon=mxgraph.aws4.compute;shadow=1;whiteSpace=wrap;" parent="1" vertex="1">
          <mxGeometry x="-330" y="-490" width="80" height="80" as="geometry" />
        </mxCell>
        <mxCell id="NrVjd3gvD7i43o5AjEjT-154" value="" style="points=[[0,0,0],[0.25,0,0],[0.5,0,0],[0.75,0,0],[1,0,0],[0,1,0],[0.25,1,0],[0.5,1,0],[0.75,1,0],[1,1,0],[0,0.25,0],[0,0.5,0],[0,0.75,0],[1,0.25,0],[1,0.5,0],[1,0.75,0]];outlineConnect=0;fontColor=#232F3E;fillColor=#ED7100;strokeColor=#ffffff;dashed=0;verticalLabelPosition=bottom;verticalAlign=top;align=center;html=1;fontSize=12;fontStyle=0;aspect=fixed;shape=mxgraph.aws4.resourceIcon;resIcon=mxgraph.aws4.compute;shadow=1;whiteSpace=wrap;" parent="1" vertex="1">
          <mxGeometry x="-570" y="-490" width="80" height="80" as="geometry" />
        </mxCell>
        <mxCell id="NrVjd3gvD7i43o5AjEjT-155" style="edgeStyle=orthogonalEdgeStyle;rounded=1;hachureGap=4;orthogonalLoop=1;jettySize=auto;html=1;exitX=0.5;exitY=1;exitDx=0;exitDy=0;exitPerimeter=0;entryX=0.25;entryY=0;entryDx=0;entryDy=0;fontFamily=Helvetica;shadow=1;strokeColor=#545B64;align=center;verticalAlign=middle;fontSize=11;fontColor=default;labelBackgroundColor=default;elbow=vertical;startArrow=block;startFill=1;endArrow=block;endFill=1;flowAnimation=1;curved=0;" parent="1" source="NrVjd3gvD7i43o5AjEjT-154" target="NrVjd3gvD7i43o5AjEjT-142" edge="1">
          <mxGeometry relative="1" as="geometry">
            <mxPoint x="-530" y="-400" as="sourcePoint" />
            <mxPoint x="-320" y="-260" as="targetPoint" />
            <Array as="points">
              <mxPoint x="-530" y="-310" />
              <mxPoint x="-430" y="-310" />
            </Array>
          </mxGeometry>
        </mxCell>
        <mxCell id="NrVjd3gvD7i43o5AjEjT-156" style="edgeStyle=orthogonalEdgeStyle;rounded=1;hachureGap=4;orthogonalLoop=1;jettySize=auto;html=1;exitX=0.5;exitY=1;exitDx=0;exitDy=0;exitPerimeter=0;entryX=0.75;entryY=0;entryDx=0;entryDy=0;fontFamily=Helvetica;shadow=1;strokeColor=#545B64;align=center;verticalAlign=middle;fontSize=11;fontColor=default;labelBackgroundColor=default;elbow=vertical;startArrow=block;startFill=1;endArrow=block;endFill=1;flowAnimation=1;curved=0;" parent="1" source="NrVjd3gvD7i43o5AjEjT-153" target="NrVjd3gvD7i43o5AjEjT-142" edge="1">
          <mxGeometry relative="1" as="geometry">
            <mxPoint x="-290" y="-400" as="sourcePoint" />
            <mxPoint x="-80" y="-260" as="targetPoint" />
            <Array as="points">
              <mxPoint x="-290" y="-310" />
              <mxPoint x="-390" y="-310" />
            </Array>
          </mxGeometry>
        </mxCell>
        <mxCell id="NrVjd3gvD7i43o5AjEjT-157" style="edgeStyle=orthogonalEdgeStyle;rounded=1;hachureGap=4;orthogonalLoop=1;jettySize=auto;html=1;exitX=0.5;exitY=1;exitDx=0;exitDy=0;exitPerimeter=0;entryX=0.5;entryY=0;entryDx=0;entryDy=0;fontFamily=Helvetica;shadow=1;strokeColor=#545B64;align=center;verticalAlign=middle;fontSize=11;fontColor=default;labelBackgroundColor=default;elbow=vertical;startArrow=block;startFill=1;endArrow=block;endFill=1;flowAnimation=1;curved=0;" parent="1" source="NrVjd3gvD7i43o5AjEjT-152" target="NrVjd3gvD7i43o5AjEjT-142" edge="1">
          <mxGeometry relative="1" as="geometry">
            <mxPoint x="-410" y="-400" as="sourcePoint" />
            <mxPoint x="-500" y="-260" as="targetPoint" />
            <Array as="points">
              <mxPoint x="-410" y="-290" />
              <mxPoint x="-410" y="-290" />
            </Array>
          </mxGeometry>
        </mxCell>
        <mxCell id="NrVjd3gvD7i43o5AjEjT-158" value="&lt;font style=&quot;font-size: 14px;&quot;&gt;&lt;b&gt;Console 1&lt;/b&gt;&lt;/font&gt;" style="text;html=1;align=center;verticalAlign=middle;rounded=0;fontFamily=Architects Daughter;fontSource=https%3A%2F%2Ffonts.googleapis.com%2Fcss%3Ffamily%3DArchitects%2BDaughter;whiteSpace=wrap;" parent="1" vertex="1">
          <mxGeometry x="-620" y="-410" width="90" height="30" as="geometry" />
        </mxCell>
        <mxCell id="NrVjd3gvD7i43o5AjEjT-159" value="&lt;font style=&quot;font-size: 14px;&quot;&gt;&lt;b&gt;Console 2&lt;/b&gt;&lt;/font&gt;" style="text;html=1;align=center;verticalAlign=middle;rounded=0;fontFamily=Architects Daughter;fontSource=https%3A%2F%2Ffonts.googleapis.com%2Fcss%3Ffamily%3DArchitects%2BDaughter;whiteSpace=wrap;" parent="1" vertex="1">
          <mxGeometry x="-500" y="-410" width="90" height="30" as="geometry" />
        </mxCell>
        <mxCell id="NrVjd3gvD7i43o5AjEjT-160" value="&lt;font style=&quot;font-size: 14px;&quot;&gt;&lt;b&gt;Console 3&lt;/b&gt;&lt;/font&gt;" style="text;html=1;align=center;verticalAlign=middle;rounded=0;fontFamily=Architects Daughter;fontSource=https%3A%2F%2Ffonts.googleapis.com%2Fcss%3Ffamily%3DArchitects%2BDaughter;whiteSpace=wrap;" parent="1" vertex="1">
          <mxGeometry x="-380" y="-410" width="90" height="30" as="geometry" />
        </mxCell>
        <mxCell id="NrVjd3gvD7i43o5AjEjT-161" value="" style="edgeStyle=orthogonalEdgeStyle;html=1;endArrow=block;elbow=vertical;startArrow=none;startFill=0;endFill=1;strokeColor=#545B64;rounded=1;curved=0;entryX=0;entryY=0.25;entryDx=0;entryDy=0;entryPerimeter=0;flowAnimation=1;shadow=1;exitX=1;exitY=0.25;exitDx=0;exitDy=0;exitPerimeter=0;jumpStyle=arc;jumpSize=16;" parent="1" target="NrVjd3gvD7i43o5AjEjT-10" edge="1" source="NrVjd3gvD7i43o5AjEjT-60">
          <mxGeometry width="100" relative="1" as="geometry">
            <mxPoint x="-490" y="70" as="sourcePoint" />
            <mxPoint x="-50" y="130" as="targetPoint" />
            <Array as="points">
              <mxPoint x="-410" y="80" />
              <mxPoint x="-410" y="150" />
            </Array>
          </mxGeometry>
        </mxCell>
        <mxCell id="NrVjd3gvD7i43o5AjEjT-162" value="" style="edgeStyle=orthogonalEdgeStyle;html=1;endArrow=block;elbow=vertical;startArrow=none;startFill=0;endFill=1;strokeColor=#545B64;rounded=1;curved=0;entryX=0;entryY=0.5;entryDx=0;entryDy=0;entryPerimeter=0;flowAnimation=1;shadow=1;exitX=1;exitY=0.5;exitDx=0;exitDy=0;exitPerimeter=0;jumpStyle=arc;jumpSize=16;" parent="1" source="NrVjd3gvD7i43o5AjEjT-64" target="NrVjd3gvD7i43o5AjEjT-16" edge="1">
          <mxGeometry width="100" relative="1" as="geometry">
            <mxPoint x="-490" y="-30" as="sourcePoint" />
            <mxPoint x="-50" y="30" as="targetPoint" />
            <Array as="points">
              <mxPoint x="-410" />
              <mxPoint x="-410" y="50" />
            </Array>
          </mxGeometry>
        </mxCell>
        <mxCell id="NrVjd3gvD7i43o5AjEjT-164" style="edgeStyle=orthogonalEdgeStyle;rounded=1;hachureGap=4;orthogonalLoop=1;jettySize=auto;html=1;exitX=1;exitY=0.5;exitDx=0;exitDy=0;exitPerimeter=0;fontFamily=Helvetica;shadow=1;strokeColor=#545B64;align=center;verticalAlign=middle;fontSize=11;fontColor=default;labelBackgroundColor=default;elbow=vertical;startArrow=none;startFill=0;endArrow=block;endFill=1;flowAnimation=1;curved=0;" parent="1" source="NrVjd3gvD7i43o5AjEjT-103" edge="1">
          <mxGeometry relative="1" as="geometry">
            <mxPoint x="268" y="-420" as="sourcePoint" />
            <mxPoint x="70" y="-80" as="targetPoint" />
            <Array as="points">
              <mxPoint x="280" y="-440" />
              <mxPoint x="280" y="-370" />
              <mxPoint x="90" y="-370" />
              <mxPoint x="90" y="-250" />
              <mxPoint x="70" y="-250" />
              <mxPoint x="70" y="-80" />
            </Array>
          </mxGeometry>
        </mxCell>
        <mxCell id="NrVjd3gvD7i43o5AjEjT-165" value="" style="sketch=0;points=[[0,0,0],[0.25,0,0],[0.5,0,0],[0.75,0,0],[1,0,0],[0,1,0],[0.25,1,0],[0.5,1,0],[0.75,1,0],[1,1,0],[0,0.25,0],[0,0.5,0],[0,0.75,0],[1,0.25,0],[1,0.5,0],[1,0.75,0]];gradientDirection=north;outlineConnect=0;fontColor=#232F3E;gradientColor=none;fillColor=#ED7100;strokeColor=#ffffff;dashed=0;verticalLabelPosition=bottom;verticalAlign=top;align=center;html=1;fontSize=12;fontStyle=0;aspect=fixed;shape=mxgraph.aws4.resourceIcon;resIcon=mxgraph.aws4.general;hachureGap=4;jiggle=2;curveFitting=1;fontFamily=Helvetica;shadow=1;whiteSpace=wrap;" parent="1" vertex="1">
          <mxGeometry x="160" y="-600" width="80" height="80" as="geometry" />
        </mxCell>
        <mxCell id="NrVjd3gvD7i43o5AjEjT-167" value="&lt;font style=&quot;font-size: 14px;&quot;&gt;&lt;b&gt;Group IB&lt;/b&gt;&lt;/font&gt;" style="text;html=1;align=center;verticalAlign=middle;rounded=0;fontFamily=Architects Daughter;fontSource=https%3A%2F%2Ffonts.googleapis.com%2Fcss%3Ffamily%3DArchitects%2BDaughter;whiteSpace=wrap;" parent="1" vertex="1">
          <mxGeometry x="160" y="-520" width="80" height="30" as="geometry" />
        </mxCell>
        <mxCell id="NrVjd3gvD7i43o5AjEjT-168" style="edgeStyle=orthogonalEdgeStyle;rounded=1;hachureGap=4;orthogonalLoop=1;jettySize=auto;html=1;exitX=1;exitY=0.5;exitDx=0;exitDy=0;exitPerimeter=0;fontFamily=Helvetica;shadow=1;strokeColor=#545B64;align=center;verticalAlign=middle;fontSize=11;fontColor=default;labelBackgroundColor=default;elbow=vertical;startArrow=none;startFill=0;endArrow=block;endFill=1;flowAnimation=1;curved=0;entryX=0.656;entryY=0.001;entryDx=0;entryDy=0;entryPerimeter=0;dashed=1;dashPattern=8 8;" parent="1" source="NrVjd3gvD7i43o5AjEjT-165" target="NrVjd3gvD7i43o5AjEjT-56" edge="1">
          <mxGeometry relative="1" as="geometry">
            <mxPoint x="220" y="-570" as="sourcePoint" />
            <mxPoint x="90" y="-170" as="targetPoint" />
            <Array as="points">
              <mxPoint x="280" y="-560" />
              <mxPoint x="280" y="-370" />
              <mxPoint x="90" y="-370" />
              <mxPoint x="90" y="-250" />
              <mxPoint x="50" y="-250" />
              <mxPoint x="50" y="-130" />
            </Array>
          </mxGeometry>
        </mxCell>
        <mxCell id="NrVjd3gvD7i43o5AjEjT-169" value="" style="sketch=0;points=[[0,0,0],[0.25,0,0],[0.5,0,0],[0.75,0,0],[1,0,0],[0,1,0],[0.25,1,0],[0.5,1,0],[0.75,1,0],[1,1,0],[0,0.25,0],[0,0.5,0],[0,0.75,0],[1,0.25,0],[1,0.5,0],[1,0.75,0]];gradientDirection=north;outlineConnect=0;fontColor=#232F3E;gradientColor=none;fillColor=#ED7100;strokeColor=#ffffff;dashed=0;verticalLabelPosition=bottom;verticalAlign=top;align=center;html=1;fontSize=12;fontStyle=0;aspect=fixed;shape=mxgraph.aws4.resourceIcon;resIcon=mxgraph.aws4.general;hachureGap=4;jiggle=2;curveFitting=1;fontFamily=Helvetica;shadow=1;whiteSpace=wrap;" parent="1" vertex="1">
          <mxGeometry x="400" y="-600" width="80" height="80" as="geometry" />
        </mxCell>
        <mxCell id="NrVjd3gvD7i43o5AjEjT-170" value="&lt;font style=&quot;font-size: 14px;&quot;&gt;&lt;b&gt;Qualys&lt;/b&gt;&lt;/font&gt;" style="text;html=1;align=center;verticalAlign=middle;rounded=0;fontFamily=Architects Daughter;fontSource=https%3A%2F%2Ffonts.googleapis.com%2Fcss%3Ffamily%3DArchitects%2BDaughter;whiteSpace=wrap;" parent="1" vertex="1">
          <mxGeometry x="400" y="-520" width="80" height="30" as="geometry" />
        </mxCell>
        <mxCell id="NrVjd3gvD7i43o5AjEjT-171" style="edgeStyle=orthogonalEdgeStyle;rounded=1;hachureGap=4;orthogonalLoop=1;jettySize=auto;html=1;exitX=1;exitY=0.5;exitDx=0;exitDy=0;fontFamily=Helvetica;shadow=1;strokeColor=#545B64;align=center;verticalAlign=middle;fontSize=11;fontColor=default;labelBackgroundColor=default;elbow=vertical;startArrow=none;startFill=0;endArrow=block;endFill=1;flowAnimation=1;curved=0;exitPerimeter=0;entryX=0.738;entryY=0.001;entryDx=0;entryDy=0;entryPerimeter=0;" parent="1" source="NrVjd3gvD7i43o5AjEjT-169" target="NrVjd3gvD7i43o5AjEjT-56" edge="1">
          <mxGeometry relative="1" as="geometry">
            <mxPoint x="320" y="-560" as="sourcePoint" />
            <mxPoint x="150" y="-170" as="targetPoint" />
            <Array as="points">
              <mxPoint x="520" y="-560" />
              <mxPoint x="520" y="-370" />
              <mxPoint x="320" y="-370" />
              <mxPoint x="320" y="-250" />
              <mxPoint x="92" y="-250" />
            </Array>
          </mxGeometry>
        </mxCell>
        <mxCell id="IXM6PDqNAu9xnRJ2JXcx-2" value="" style="sketch=0;points=[[0,0,0],[0.25,0,0],[0.5,0,0],[0.75,0,0],[1,0,0],[0,1,0],[0.25,1,0],[0.5,1,0],[0.75,1,0],[1,1,0],[0,0.25,0],[0,0.5,0],[0,0.75,0],[1,0.25,0],[1,0.5,0],[1,0.75,0]];outlineConnect=0;fontColor=#232F3E;fillColor=#8C4FFF;strokeColor=#ffffff;dashed=0;verticalLabelPosition=bottom;verticalAlign=top;align=center;html=1;fontSize=12;fontStyle=0;aspect=fixed;shape=mxgraph.aws4.resourceIcon;resIcon=mxgraph.aws4.rds;shadow=1;fontFamily=Helvetica;" parent="1" vertex="1">
          <mxGeometry x="270" y="-40" width="78" height="78" as="geometry" />
        </mxCell>
        <mxCell id="IXM6PDqNAu9xnRJ2JXcx-3" value="" style="edgeStyle=orthogonalEdgeStyle;html=1;endArrow=block;elbow=vertical;startArrow=none;startFill=0;endFill=1;strokeColor=#545B64;rounded=1;curved=0;exitX=1;exitY=0.5;exitDx=0;exitDy=0;exitPerimeter=0;flowAnimation=1;shadow=1;entryX=0.5;entryY=0;entryDx=0;entryDy=0;entryPerimeter=0;" parent="1" source="IXM6PDqNAu9xnRJ2JXcx-2" edge="1" target="NrVjd3gvD7i43o5AjEjT-25">
          <mxGeometry width="100" relative="1" as="geometry">
            <mxPoint x="290" y="21" as="sourcePoint" />
            <mxPoint x="500" y="70" as="targetPoint" />
            <Array as="points">
              <mxPoint x="410" y="-1" />
              <mxPoint x="410" y="50" />
              <mxPoint x="519" y="50" />
            </Array>
          </mxGeometry>
        </mxCell>
        <mxCell id="IXM6PDqNAu9xnRJ2JXcx-4" value="" style="edgeStyle=orthogonalEdgeStyle;html=1;endArrow=block;elbow=vertical;startArrow=none;startFill=0;endFill=1;strokeColor=#545B64;rounded=1;entryX=0;entryY=0.25;entryDx=0;entryDy=0;exitX=1;exitY=0.25;exitDx=0;exitDy=0;exitPerimeter=0;curved=0;flowAnimation=1;shadow=1;" parent="1" source="NrVjd3gvD7i43o5AjEjT-25" target="NrVjd3gvD7i43o5AjEjT-26" edge="1">
          <mxGeometry width="100" relative="1" as="geometry">
            <mxPoint x="558" y="90" as="sourcePoint" />
            <mxPoint x="660" y="90" as="targetPoint" />
          </mxGeometry>
        </mxCell>
        <mxCell id="IXM6PDqNAu9xnRJ2JXcx-5" value="&lt;span style=&quot;font-size: 14px;&quot;&gt;&lt;b&gt;Amazon RDS&lt;/b&gt;&lt;/span&gt;" style="text;html=1;align=center;verticalAlign=middle;rounded=0;fontFamily=Architects Daughter;fontSource=https%3A%2F%2Ffonts.googleapis.com%2Fcss%3Ffamily%3DArchitects%2BDaughter;whiteSpace=wrap;" parent="1" vertex="1">
          <mxGeometry x="270" y="40" width="80" height="40" as="geometry" />
        </mxCell>
        <mxCell id="ZCVKqeAUbGFtYdAIj5f1-1" value="" style="sketch=0;points=[[0,0,0],[0.25,0,0],[0.5,0,0],[0.75,0,0],[1,0,0],[0,1,0],[0.25,1,0],[0.5,1,0],[0.75,1,0],[1,1,0],[0,0.25,0],[0,0.5,0],[0,0.75,0],[1,0.25,0],[1,0.5,0],[1,0.75,0]];gradientDirection=north;outlineConnect=0;fontColor=#232F3E;gradientColor=none;fillColor=#ED7100;strokeColor=#ffffff;dashed=0;verticalLabelPosition=bottom;verticalAlign=top;align=center;html=1;fontSize=12;fontStyle=0;aspect=fixed;shape=mxgraph.aws4.resourceIcon;resIcon=mxgraph.aws4.general;hachureGap=4;jiggle=2;curveFitting=1;fontFamily=Helvetica;shadow=1;whiteSpace=wrap;" parent="1" vertex="1">
          <mxGeometry x="400" y="-480" width="80" height="80" as="geometry" />
        </mxCell>
        <mxCell id="ZCVKqeAUbGFtYdAIj5f1-3" value="&lt;font style=&quot;font-size: 14px;&quot;&gt;&lt;b&gt;NVD&lt;/b&gt;&lt;/font&gt;" style="text;html=1;align=center;verticalAlign=middle;rounded=0;fontFamily=Architects Daughter;fontSource=https%3A%2F%2Ffonts.googleapis.com%2Fcss%3Ffamily%3DArchitects%2BDaughter;whiteSpace=wrap;" parent="1" vertex="1">
          <mxGeometry x="400" y="-400" width="80" height="30" as="geometry" />
        </mxCell>
        <mxCell id="ZCVKqeAUbGFtYdAIj5f1-4" value="" style="sketch=0;points=[[0,0,0],[0.25,0,0],[0.5,0,0],[0.75,0,0],[1,0,0],[0,1,0],[0.25,1,0],[0.5,1,0],[0.75,1,0],[1,1,0],[0,0.25,0],[0,0.5,0],[0,0.75,0],[1,0.25,0],[1,0.5,0],[1,0.75,0]];gradientDirection=north;outlineConnect=0;fontColor=#232F3E;gradientColor=none;fillColor=#ED7100;strokeColor=#ffffff;dashed=0;verticalLabelPosition=bottom;verticalAlign=top;align=center;html=1;fontSize=12;fontStyle=0;aspect=fixed;shape=mxgraph.aws4.resourceIcon;resIcon=mxgraph.aws4.general;hachureGap=4;jiggle=2;curveFitting=1;fontFamily=Helvetica;shadow=1;whiteSpace=wrap;" parent="1" vertex="1">
          <mxGeometry x="560" y="-600" width="80" height="80" as="geometry" />
        </mxCell>
        <mxCell id="ZCVKqeAUbGFtYdAIj5f1-5" value="&lt;font style=&quot;font-size: 14px;&quot;&gt;&lt;b&gt;Criminal IP&lt;/b&gt;&lt;/font&gt;" style="text;html=1;align=center;verticalAlign=middle;rounded=0;fontFamily=Architects Daughter;fontSource=https%3A%2F%2Ffonts.googleapis.com%2Fcss%3Ffamily%3DArchitects%2BDaughter;whiteSpace=wrap;" parent="1" vertex="1">
          <mxGeometry x="560" y="-520" width="80" height="30" as="geometry" />
        </mxCell>
        <mxCell id="ZCVKqeAUbGFtYdAIj5f1-6" value="" style="sketch=0;points=[[0,0,0],[0.25,0,0],[0.5,0,0],[0.75,0,0],[1,0,0],[0,1,0],[0.25,1,0],[0.5,1,0],[0.75,1,0],[1,1,0],[0,0.25,0],[0,0.5,0],[0,0.75,0],[1,0.25,0],[1,0.5,0],[1,0.75,0]];gradientDirection=north;outlineConnect=0;fontColor=#232F3E;gradientColor=none;fillColor=#ED7100;strokeColor=#ffffff;dashed=0;verticalLabelPosition=bottom;verticalAlign=top;align=center;html=1;fontSize=12;fontStyle=0;aspect=fixed;shape=mxgraph.aws4.resourceIcon;resIcon=mxgraph.aws4.general;hachureGap=4;jiggle=2;curveFitting=1;fontFamily=Helvetica;shadow=1;whiteSpace=wrap;" parent="1" vertex="1">
          <mxGeometry x="560" y="-480" width="80" height="80" as="geometry" />
        </mxCell>
        <mxCell id="ZCVKqeAUbGFtYdAIj5f1-7" value="&lt;font style=&quot;font-size: 14px;&quot;&gt;&lt;b&gt;Vulners&lt;/b&gt;&lt;/font&gt;" style="text;html=1;align=center;verticalAlign=middle;rounded=0;fontFamily=Architects Daughter;fontSource=https%3A%2F%2Ffonts.googleapis.com%2Fcss%3Ffamily%3DArchitects%2BDaughter;whiteSpace=wrap;" parent="1" vertex="1">
          <mxGeometry x="560" y="-400" width="80" height="30" as="geometry" />
        </mxCell>
        <mxCell id="ZCVKqeAUbGFtYdAIj5f1-8" style="edgeStyle=orthogonalEdgeStyle;rounded=1;hachureGap=4;orthogonalLoop=1;jettySize=auto;html=1;exitX=1;exitY=0.5;exitDx=0;exitDy=0;fontFamily=Helvetica;shadow=1;strokeColor=#545B64;align=center;verticalAlign=middle;fontSize=11;fontColor=default;labelBackgroundColor=default;elbow=vertical;startArrow=none;startFill=0;endArrow=block;endFill=1;flowAnimation=1;curved=0;exitPerimeter=0;entryX=0.811;entryY=-0.002;entryDx=0;entryDy=0;entryPerimeter=0;" parent="1" source="ZCVKqeAUbGFtYdAIj5f1-4" edge="1" target="NrVjd3gvD7i43o5AjEjT-56">
          <mxGeometry relative="1" as="geometry">
            <mxPoint x="650" y="-560" as="sourcePoint" />
            <mxPoint x="130" y="-140" as="targetPoint" />
            <Array as="points">
              <mxPoint x="690" y="-560" />
              <mxPoint x="690" y="-370" />
              <mxPoint x="320" y="-370" />
              <mxPoint x="320" y="-250" />
              <mxPoint x="130" y="-250" />
            </Array>
          </mxGeometry>
        </mxCell>
        <mxCell id="ZCVKqeAUbGFtYdAIj5f1-9" style="edgeStyle=orthogonalEdgeStyle;rounded=1;hachureGap=4;orthogonalLoop=1;jettySize=auto;html=1;exitX=1;exitY=0.5;exitDx=0;exitDy=0;exitPerimeter=0;fontFamily=Helvetica;shadow=1;strokeColor=#545B64;align=center;verticalAlign=middle;fontSize=11;fontColor=default;labelBackgroundColor=default;elbow=vertical;startArrow=none;startFill=0;endArrow=block;endFill=1;flowAnimation=1;curved=0;" parent="1" source="ZCVKqeAUbGFtYdAIj5f1-1" edge="1">
          <mxGeometry relative="1" as="geometry">
            <mxPoint x="330" y="-430" as="sourcePoint" />
            <mxPoint x="110" y="-80" as="targetPoint" />
            <Array as="points">
              <mxPoint x="480" y="-430" />
              <mxPoint x="520" y="-430" />
              <mxPoint x="520" y="-370" />
              <mxPoint x="320" y="-370" />
              <mxPoint x="320" y="-250" />
              <mxPoint x="110" y="-250" />
            </Array>
          </mxGeometry>
        </mxCell>
        <mxCell id="ZCVKqeAUbGFtYdAIj5f1-18" value="&lt;font style=&quot;font-size: 14px;&quot;&gt;&lt;b&gt;3rd Party - Data Enrichment&lt;/b&gt;&lt;/font&gt;" style="text;html=1;align=center;verticalAlign=middle;rounded=0;fontFamily=Architects Daughter;fontSource=https%3A%2F%2Ffonts.googleapis.com%2Fcss%3Ffamily%3DArchitects%2BDaughter;whiteSpace=wrap;" parent="1" vertex="1">
          <mxGeometry x="400" y="-640" width="240" height="30" as="geometry" />
        </mxCell>
        <mxCell id="ZCVKqeAUbGFtYdAIj5f1-19" value="&lt;font style=&quot;font-size: 14px;&quot;&gt;&lt;b&gt;3rd Party - Log Collection&lt;/b&gt;&lt;/font&gt;" style="text;html=1;align=center;verticalAlign=middle;rounded=0;fontFamily=Architects Daughter;fontSource=https%3A%2F%2Ffonts.googleapis.com%2Fcss%3Ffamily%3DArchitects%2BDaughter;whiteSpace=wrap;" parent="1" vertex="1">
          <mxGeometry y="-640" width="240" height="30" as="geometry" />
        </mxCell>
        <mxCell id="njx6C8Y_kbzef39WuZv8-1" value="&lt;pre&gt;&lt;b style=&quot;&quot;&gt;&lt;font face=&quot;Garamond&quot;&gt;PORT: 5432&lt;/font&gt;&lt;/b&gt;&lt;/pre&gt;" style="text;html=1;align=center;verticalAlign=middle;rounded=0;fontFamily=Architects Daughter;fontSource=https%3A%2F%2Ffonts.googleapis.com%2Fcss%3Ffamily%3DArchitects%2BDaughter;rotation=0;whiteSpace=wrap;" parent="1" vertex="1">
          <mxGeometry x="350" y="-80" width="80" height="30" as="geometry" />
        </mxCell>
        <mxCell id="jcx5q0ECtgWjpwYE92kP-1" style="edgeStyle=orthogonalEdgeStyle;rounded=1;hachureGap=4;orthogonalLoop=1;jettySize=auto;html=1;exitX=1;exitY=0.5;exitDx=0;exitDy=0;fontFamily=Helvetica;shadow=1;strokeColor=#545B64;align=center;verticalAlign=middle;fontSize=11;fontColor=default;labelBackgroundColor=default;elbow=vertical;startArrow=none;startFill=0;endArrow=block;endFill=1;flowAnimation=1;curved=0;exitPerimeter=0;entryX=0.85;entryY=0;entryDx=0;entryDy=0;entryPerimeter=0;" edge="1" parent="1" source="ZCVKqeAUbGFtYdAIj5f1-6" target="NrVjd3gvD7i43o5AjEjT-56">
          <mxGeometry relative="1" as="geometry">
            <mxPoint x="660" y="-560" as="sourcePoint" />
            <mxPoint x="150" y="-132" as="targetPoint" />
            <Array as="points">
              <mxPoint x="690" y="-440" />
              <mxPoint x="690" y="-370" />
              <mxPoint x="320" y="-370" />
              <mxPoint x="320" y="-250" />
              <mxPoint x="150" y="-250" />
            </Array>
          </mxGeometry>
        </mxCell>
      </root>
    </mxGraphModel>
  </diagram>
</mxfile>
